<?xml version="1.0" encoding="UTF-8"?>
<svg fill="#8D99A6" width="100pt" height="100pt" version="1.1" viewBox="0 0 100 100" xmlns="http://www.w3.org/2000/svg">
 <g>
  <path d="m64.348 70.871-14.348-14.785-14.781 14.348-6.0898-6.0859 14.785-14.348-14.785-14.348 6.0898-6.5234 14.781 14.785 14.348-14.785 6.0859 6.0898-14.348 14.781 14.348 14.348z"/>
  <path d="m50 100c27.391 0 50-22.609 50-50 0-27.824-22.609-50-50-50-27.824 0-50 22.176-50 50 0 27.391 22.176 50 50 50zm0-3.4766c-25.652 0-46.523-20.871-46.523-46.523s20.871-46.523 46.523-46.523 46.523 20.871 46.523 46.523-20.871 46.523-46.523 46.523z"/>
 </g>
</svg>
