<?xml version="1.0" encoding="utf-8"?>
<!-- Generator: Adobe Illustrator 16.0.4, SVG Export Plug-In . SVG Version: 6.00 Build 0)  -->
<!DOCTYPE svg PUBLIC "-//W3C//DTD SVG 1.1//EN" "http://www.w3.org/Graphics/SVG/1.1/DTD/svg11.dtd">
<svg version="1.1" id="Layer_1" xmlns="http://www.w3.org/2000/svg" xmlns:xlink="http://www.w3.org/1999/xlink" x="0px" y="0px"
	 width="380px" height="380px" viewBox="0 0 380 380" enable-background="new 0 0 380 380" xml:space="preserve">
<g>
	<path fill="#F9D5F8" d="M338.737,230.166c-25.355,83.818-87.997,94.667-182.28,66.147c-94.281-28.52-140.405-72.272-115.05-156.09
		s87.997-94.668,182.278-66.147C317.968,102.596,364.093,146.349,338.737,230.166z"/>
</g>
<g>
	<g>
		<g>
			<path fill="#FFFBCD" d="M265.622,274.194c-1.545,10.891-11.72,18.538-22.61,16.993l-111.43-15.809
				c-10.891-1.545-18.538-11.72-16.993-22.61l22.58-159.182c1.545-10.891,11.72-18.538,22.61-16.993l111.434,15.807
				c10.891,1.545,18.537,11.72,16.992,22.611L265.622,274.194z"/>
		</g>
		<g>
			<path fill="#213B4D" d="M245.814,296.386c-1.166,0-2.346-0.083-3.505-0.248l-111.43-15.809
				c-6.589-0.935-12.433-4.396-16.455-9.747c-4.021-5.351-5.721-11.926-4.787-18.516l22.58-159.182
				c1.737-12.251,12.381-21.489,24.757-21.489c1.167,0,2.346,0.083,3.506,0.248l111.433,15.807
				c6.589,0.935,12.433,4.396,16.454,9.747c4.021,5.351,5.722,11.927,4.786,18.516l-22.583,159.183
				C268.835,287.147,258.191,296.386,245.814,296.386z M156.976,81.396c-7.427,0-13.813,5.543-14.856,12.893L119.54,253.471
				c-0.56,3.945,0.463,7.889,2.879,11.104c2.417,3.216,5.92,5.295,9.865,5.854l111.429,15.809c0.696,0.099,1.403,0.148,2.101,0.148
				c7.428,0,13.814-5.543,14.857-12.894l22.583-159.183c0.56-3.945-0.463-7.889-2.88-11.104c-2.416-3.216-5.92-5.294-9.865-5.854
				L159.077,81.544C158.381,81.445,157.674,81.396,156.976,81.396z"/>
		</g>
	</g>
	<g>
		<path fill="#7575FF" d="M259.865,276.711c0,11-9,20-20,20H127.316c-11,0-20-9-20-20V115.934c0-11,9-20,20-20h112.549
			c11,0,20,9,20,20V276.711z"/>
	</g>
	<g>
		<path fill="#4D4DA8" d="M259.865,276.711c0,11-2.724,20-6.054,20c-3.329,0-6.054-9-6.054-20V115.934c0-11,2.725-20,6.054-20
			c3.33,0,6.054,9,6.054,20V276.711z"/>
	</g>
	<g>
		<path fill="#213B4D" d="M239.865,301.711H127.316c-13.785,0-25-11.215-25-25V115.934c0-13.785,11.215-25,25-25h112.549
			c13.785,0,25,11.215,25,25v160.777C264.865,290.496,253.65,301.711,239.865,301.711z M127.316,100.934c-8.271,0-15,6.729-15,15
			v160.777c0,8.271,6.729,15,15,15h112.549c8.271,0,15-6.729,15-15V115.934c0-8.271-6.729-15-15-15H127.316z"/>
	</g>
	<g>
		<g>
			<path fill="#213B4D" d="M225.306,158.582h-91.56c-4.142,0-7.5-3.358-7.5-7.5s3.358-7.5,7.5-7.5h91.56c4.142,0,7.5,3.358,7.5,7.5
				S229.447,158.582,225.306,158.582z"/>
		</g>
		<g>
			<path fill="#213B4D" d="M214.507,187.507h-69.959c-4.142,0-7.5-3.358-7.5-7.5s3.358-7.5,7.5-7.5h69.959
				c4.142,0,7.5,3.358,7.5,7.5S218.648,187.507,214.507,187.507z"/>
		</g>
	</g>
	<g>
		<polygon fill="#FF4D4D" points="172.03,329.551 151.03,318.467 130.03,329.551 130.03,296.711 172.03,296.711 		"/>
		<path fill="#213B4D" d="M130.03,334.551c-0.896,0-1.789-0.24-2.582-0.718c-1.501-0.905-2.418-2.529-2.418-4.282v-32.84
			c0-2.762,2.239-5,5-5h42c2.761,0,5,2.238,5,5v32.84c0,1.753-0.918,3.377-2.418,4.282c-1.501,0.904-3.366,0.956-4.916,0.14
			l-18.666-9.853l-18.666,9.853C131.633,334.358,130.831,334.551,130.03,334.551z M151.03,313.467c0.802,0,1.604,0.192,2.333,0.578
			l13.667,7.213v-19.547h-32v19.547l13.666-7.213C149.426,313.659,150.228,313.467,151.03,313.467z"/>
	</g>
</g>
</svg>
