<?xml version="1.0" encoding="utf-8"?>
<!-- Generator: Adobe Illustrator 16.0.4, SVG Export Plug-In . SVG Version: 6.00 Build 0)  -->
<!DOCTYPE svg PUBLIC "-//W3C//DTD SVG 1.1//EN" "http://www.w3.org/Graphics/SVG/1.1/DTD/svg11.dtd">
<svg version="1.1" id="Layer_1" xmlns="http://www.w3.org/2000/svg" xmlns:xlink="http://www.w3.org/1999/xlink" x="0px" y="0px"
	 width="380px" height="380px" viewBox="0 0 380 380" enable-background="new 0 0 380 380" xml:space="preserve">
<g>
	<path fill="#9DEDA3" d="M326.735,116.565c41.339,77.197,4.717,129.163-82.118,175.665c-86.834,46.5-150.386,48.177-191.726-29.02
		s-4.717-129.164,82.117-175.664C221.843,41.045,285.396,39.368,326.735,116.565z"/>
</g>
<g>
	<g>
		<g>
			<path fill="#FFA686" d="M190.148,162.935c10.764,4.203,23.2,6.602,36.444,6.602c10.381,0,20.252-1.491,29.223-4.152v-10.317
				c0-8.8-7.201-16-16-16h-8.031c-8.799,0-16-7.2-16-16V81.859c0-8.8-7.201-16-16-16h-19.94c-8.799,0-16,7.2-16,16v41.208
				c0,8.8-7.199,16-16,16h-8.029c-8.8,0-16,7.2-16,16v5.624c9.148-2.788,19.249-4.358,29.89-4.358
				C166.949,156.333,179.384,158.731,190.148,162.935z"/>
		</g>
		<g>
			<path fill="#FF7847" d="M226.592,169.536c-13.244,0-25.68-2.399-36.444-6.602c-10.764-4.203-23.199-6.602-36.444-6.602
				c-10.641,0-20.741,1.57-29.89,4.358v126.376c0,8.8,7.2,16,16,16h100c8.799,0,16-7.2,16-16V165.384
				C246.844,168.045,236.973,169.536,226.592,169.536z"/>
		</g>
		<g>
			<path fill="#FF7847" d="M240.48,139.102v29.514c5.332-0.704,10.469-1.789,15.334-3.231v-10.317
				C255.814,146.492,248.973,139.456,240.48,139.102z"/>
		</g>
		<g>
			<path fill="#CC6039" d="M240.48,303.033c8.492-0.354,15.334-7.391,15.334-15.966V165.384c-4.865,1.443-10.002,2.528-15.334,3.231
				V303.033z"/>
		</g>
		<g>
			<path fill="#FF7847" d="M226.918,141.836c-17.438,0-26.508-9.969-26.508-18.769V81.859h18.297l-1.957,44.623l10.168,10.167
				V141.836z"/>
		</g>
	</g>
	<g>
		<g>
			<rect x="123.814" y="185.067" fill="#FFF268" width="132" height="76.708"/>
			<path fill="#213B4D" d="M255.814,266.775h-132c-2.761,0-5-2.238-5-5v-76.708c0-2.761,2.239-5,5-5h132c2.761,0,5,2.239,5,5v76.708
				C260.814,264.537,258.575,266.775,255.814,266.775z M128.814,256.775h122v-66.708h-122V256.775z"/>
		</g>
		<g>
			<rect x="240.48" y="185.067" fill="#A8A045" width="15.334" height="76.708"/>
		</g>
		<g>
			<g>
				<line fill="#FFFFFF" x1="146.481" y1="210.668" x2="233.814" y2="210.668"/>
				<path fill="#213B4D" d="M233.814,215.668h-87.333c-2.761,0-5-2.238-5-5c0-2.761,2.239-5,5-5h87.333c2.762,0,5,2.239,5,5
					C238.814,213.43,236.576,215.668,233.814,215.668z"/>
			</g>
			<g>
				<line fill="#FFFFFF" x1="159.815" y1="236.222" x2="220.48" y2="236.222"/>
				<path fill="#213B4D" d="M220.48,241.222h-60.666c-2.761,0-5-2.238-5-5c0-2.761,2.239-5,5-5h60.666c2.762,0,5,2.239,5,5
					C225.48,238.983,223.242,241.222,220.48,241.222z"/>
			</g>
		</g>
	</g>
	<g>
		<rect x="155.604" y="65.859" fill="#FFF268" width="68.419" height="26.415"/>
		<path fill="#213B4D" d="M224.023,97.274h-68.419c-2.761,0-5-2.239-5-5V65.859c0-2.761,2.239-5,5-5h68.419c2.761,0,5,2.239,5,5
			v26.415C229.023,95.035,226.784,97.274,224.023,97.274z M160.604,87.274h58.419V70.859h-58.419V87.274z"/>
	</g>
	<g>
		<rect x="209.48" y="65.859" fill="#A8A045" width="14.543" height="26.415"/>
	</g>
	<g>
		<g>
			<g>
				<path fill="#213B4D" d="M255.814,170.384c-2.762,0-5-2.239-5-5v-10.317c0-6.065-4.936-11-11-11h-8.031c-11.579,0-21-9.42-21-21
					V92.274c0-2.761,2.239-5,5-5c2.762,0,5,2.239,5,5v30.793c0,6.065,4.936,11,11,11h8.031c11.579,0,21,9.42,21,21v10.317
					C260.814,168.146,258.575,170.384,255.814,170.384z"/>
			</g>
			<g>
				<path fill="#213B4D" d="M123.814,165.691c-2.761,0-5-2.239-5-5v-5.624c0-11.58,9.42-21,21-21h8.029c6.065,0,11-4.935,11-11
					V92.274c0-2.761,2.239-5,5-5s5,2.239,5,5v30.793c0,11.58-9.42,21-21,21h-8.029c-6.065,0-11,4.935-11,11v5.624
					C128.814,163.452,126.575,165.691,123.814,165.691z"/>
			</g>
			<g>
				<path fill="#213B4D" d="M239.814,308.067h-100c-11.58,0-21-9.421-21-21V160.691c0-2.761,2.239-5,5-5s5,2.239,5,5v126.376
					c0,6.065,4.935,11,11,11h100c6.064,0,11-4.935,11-11V165.384c0-2.761,2.238-5,5-5c2.761,0,5,2.239,5,5v121.683
					C260.814,298.646,251.394,308.067,239.814,308.067z"/>
			</g>
		</g>
		<g>
			<g>
				<path fill="#213B4D" d="M255.814,266.775h-132c-2.761,0-5-2.238-5-5v-76.708c0-2.761,2.239-5,5-5h132c2.761,0,5,2.239,5,5
					v76.708C260.814,264.537,258.575,266.775,255.814,266.775z M128.814,256.775h122v-66.708h-122V256.775z"/>
			</g>
			<g>
				<g>
					<path fill="#213B4D" d="M233.814,215.668h-87.333c-2.761,0-5-2.238-5-5c0-2.761,2.239-5,5-5h87.333c2.762,0,5,2.239,5,5
						C238.814,213.43,236.576,215.668,233.814,215.668z"/>
				</g>
				<g>
					<path fill="#213B4D" d="M220.48,241.222h-60.666c-2.761,0-5-2.238-5-5c0-2.761,2.239-5,5-5h60.666c2.762,0,5,2.239,5,5
						C225.48,238.983,223.242,241.222,220.48,241.222z"/>
				</g>
			</g>
		</g>
		<g>
			<path fill="#213B4D" d="M224.023,97.274h-68.419c-2.761,0-5-2.239-5-5V65.859c0-2.761,2.239-5,5-5h68.419c2.761,0,5,2.239,5,5
				v26.415C229.023,95.035,226.784,97.274,224.023,97.274z M160.604,87.274h58.419V70.859h-58.419V87.274z"/>
		</g>
	</g>
</g>
</svg>
