<?xml version="1.0" encoding="utf-8"?>
<!-- Generator: Adobe Illustrator 16.0.4, SVG Export Plug-In . SVG Version: 6.00 Build 0)  -->
<!DOCTYPE svg PUBLIC "-//W3C//DTD SVG 1.1//EN" "http://www.w3.org/Graphics/SVG/1.1/DTD/svg11.dtd">
<svg version="1.1" id="Layer_1" xmlns="http://www.w3.org/2000/svg" xmlns:xlink="http://www.w3.org/1999/xlink" x="0px" y="0px"
	 width="600px" height="600px" viewBox="0 0 600 600" enable-background="new 0 0 600 600" xml:space="preserve">
<g>
	<path fill="#FFF268" d="M507.295,313.639c0,126.997-75.83,168.362-207.294,168.362c-131.464,0-207.295-41.365-207.295-168.362
		c0-126.996,75.832-168.361,207.295-168.361C431.465,145.277,507.295,186.643,507.295,313.639z"/>
</g>
<g>
	<g>
		<g>
			<path fill="#D3F2FF" d="M410.373,208.893c2.254-2.254,2.254-5.942,0-8.196l-27.74-27.74c-2.254-2.254-5.942-2.254-8.196,0
				l-2.729,2.729c-2.254,2.254-2.254,5.943,0,8.196l27.741,27.741c2.253,2.252,5.942,2.254,8.196,0L410.373,208.893z"/>
		</g>
		<g>
			<path fill="#A6E5FF" d="M410.373,208.893c2.254-2.254,3.627-4.569,3.053-5.144l-7.081-7.081c-0.575-0.575-2.89,0.799-5.144,3.053
				l-2.729,2.729c-2.254,2.253-3.628,4.568-3.053,5.143l7.08,7.08c0.575,0.576,2.891-0.797,5.145-3.051L410.373,208.893z"/>
		</g>
		<g>
			<path fill="none" d="M410.373,208.893c2.254-2.254,2.254-5.942,0-8.196l-27.74-27.74c-2.254-2.254-5.942-2.254-8.196,0
				l-2.729,2.729c-2.254,2.254-2.254,5.943,0,8.196l27.741,27.741c2.253,2.252,5.942,2.254,8.196,0L410.373,208.893z"/>
		</g>
	</g>
	<g>
		<polygon fill="#D3F2FF" points="373.45,185.624 397.705,209.879 341.014,277.497 305.831,242.315 		"/>
	</g>
	<g>
		<polygon fill="#A6E5FF" points="390.592,202.766 397.705,209.879 341.014,277.497 333.705,270.19 		"/>
	</g>
	<g>
		<polygon fill="#5E3BA8" points="114.262,486.687 96.849,468.861 305.83,242.315 305.831,242.315 341.014,277.497 341.013,277.498 
					"/>
	</g>
	<g>
		<polygon fill="#4A2F85" points="114.813,486.134 104.575,481.758 333.705,270.19 333.705,270.19 341.014,277.497 341.013,277.498 
					"/>
	</g>
	<g>
		<g>
			<path fill="#213B4D" d="M403.548,213.812C403.547,213.812,403.547,213.812,403.548,213.812c-1.688,0-3.269-0.652-4.453-1.836
				l-27.741-27.741c-1.184-1.184-1.836-2.765-1.836-4.451s0.652-3.268,1.836-4.452l2.729-2.729c1.185-1.185,2.766-1.837,4.452-1.837
				c1.686,0,3.267,0.652,4.451,1.837l27.74,27.74c2.455,2.455,2.455,6.449,0,8.903l-2.729,2.729
				C406.814,213.159,405.233,213.812,403.548,213.812z M378.535,171.766c-1.42,0-2.749,0.548-3.745,1.544l-2.729,2.729
				c-0.995,0.996-1.543,2.325-1.543,3.745c0,1.419,0.548,2.749,1.543,3.744l27.741,27.741c0.995,0.995,2.326,1.543,3.745,1.543
				h0.001c1.419,0,2.748-0.548,3.743-1.543l2.729-2.729c2.064-2.064,2.064-5.424,0-7.489l-27.74-27.74
				C381.283,172.313,379.954,171.766,378.535,171.766z"/>
		</g>
		<g>
			<path fill="#213B4D" d="M403.548,218.312C403.547,218.312,403.547,218.312,403.548,218.312c-2.889,0-5.6-1.12-7.634-3.152
				l-27.742-27.743c-2.034-2.033-3.154-4.744-3.154-7.633s1.12-5.6,3.154-7.634l2.729-2.729c2.034-2.034,4.745-3.154,7.634-3.154
				c2.888,0,5.599,1.12,7.633,3.155l27.741,27.74c4.209,4.21,4.208,11.059,0,15.267l-2.729,2.729
				C409.146,217.191,406.436,218.312,403.548,218.312z M378.535,176.266c-0.154,0-0.376,0.039-0.562,0.226l-2.73,2.729
				c-0.186,0.187-0.225,0.408-0.225,0.562c0,0.153,0.039,0.375,0.225,0.562l27.742,27.742c0.186,0.186,0.408,0.225,0.563,0.225
				c0.153,0,0.375-0.039,0.562-0.225l2.729-2.729c0.3-0.3,0.3-0.826,0-1.126l-27.74-27.74
				C378.91,176.305,378.688,176.266,378.535,176.266z"/>
		</g>
	</g>
	<g>
		<path fill="#213B4D" d="M341.013,282.497c-1.323,0-2.595-0.524-3.535-1.465l-35.182-35.182c-0.991-0.991-1.521-2.354-1.46-3.754
			c0.062-1.401,0.709-2.712,1.783-3.613l67.618-56.691c1.986-1.663,4.915-1.537,6.748,0.297l24.255,24.255
			c1.833,1.832,1.961,4.762,0.297,6.747l-56.692,67.618c-0.901,1.075-2.212,1.722-3.612,1.783
			C341.159,282.495,341.086,282.497,341.013,282.497z M313.227,242.64l27.462,27.462l50.243-59.926l-17.779-17.778L313.227,242.64z"
			/>
	</g>
	<g>
		<path fill="#213B4D" d="M111.937,489.23c-4.553,0-8.84-1.881-12.399-5.439c-8.309-8.308-5.331-18.008-2.596-21.977
			c0.133-0.193,0.28-0.378,0.439-0.551l204.771-222.336c0.923-1.001,2.214-1.583,3.575-1.611c1.354-0.066,2.676,0.5,3.639,1.464
			l35.183,35.182c0.963,0.963,1.491,2.276,1.463,3.638c-0.027,1.361-0.609,2.652-1.611,3.575L122.065,485.947
			c-0.173,0.159-0.356,0.306-0.55,0.439C121.093,486.678,117.235,489.23,111.937,489.23z M105.041,467.708
			c-0.773,1.32-2.355,5.09,1.567,9.012c1.689,1.689,3.432,2.511,5.328,2.511c1.746,0,3.204-0.693,3.712-0.968L333.793,277.35
			l-27.813-27.814L105.041,467.708z"/>
	</g>
	<g>
		<path fill="#FFB968" d="M444.095,186.759c31.356-31.356,13.319-54.664,56.809-83.766c-27.639,0-71.513,3.421-104.333,36.242
			c-13.123,13.123-13.123,34.4,0,47.523C409.693,199.883,430.972,199.883,444.095,186.759z"/>
		<path fill="#213B4D" d="M420.332,201.602c-10.312,0-20.006-4.016-27.297-11.308c-7.291-7.291-11.307-16.985-11.307-27.297
			s4.016-20.006,11.307-27.297c37.705-37.707,90.515-37.707,107.868-37.707c2.201,0,4.144,1.44,4.784,3.547
			c0.64,2.106-0.174,4.384-2.004,5.608c-22.999,15.391-27.512,28.382-32.738,43.426c-4.094,11.783-8.734,25.139-23.315,39.72
			C440.339,197.586,430.645,201.602,420.332,201.602z M485.611,108.413c-26.652,1.573-59.577,8.429-85.505,34.357
			c-5.403,5.403-8.378,12.586-8.378,20.227s2.975,14.823,8.377,20.227c5.403,5.402,12.587,8.378,20.227,8.378
			c7.641,0,14.824-2.976,20.227-8.378c12.959-12.959,16.836-24.117,20.94-35.932C465.827,134.833,470.276,122.028,485.611,108.413z"
			/>
	</g>
	<g>
		<path fill="#FFB968" d="M396.57,186.759c0,0,2.209-33.679,32.065-44.412"/>
		<path fill="#213B4D" d="M396.575,191.753c-0.114,0-0.228-0.004-0.343-0.012c-2.751-0.187-4.832-2.559-4.651-5.31
			c0.099-1.509,2.798-37.083,35.363-48.79c2.599-0.935,5.463,0.415,6.396,3.014c0.935,2.599-0.415,5.463-3.014,6.396
			c-26.321,9.463-28.681,38.802-28.769,40.046C401.374,189.732,399.178,191.753,396.575,191.753z"/>
	</g>
	<g>
		<path fill="#FFB968" d="M472.249,133.686c0,0-29.845,38.82-40.882,33.249"/>
		<path fill="#213B4D" d="M433.871,172.521c-1.703,0-3.281-0.378-4.757-1.122c-2.465-1.245-3.454-4.252-2.21-6.717
			c1.244-2.466,4.252-3.453,6.717-2.211c0.02,0.007,4.654,0.925,19.243-14.07c8.303-8.534,15.351-17.672,15.421-17.763
			c1.684-2.188,4.822-2.601,7.012-0.915c2.188,1.683,2.6,4.821,0.916,7.011c-0.312,0.405-7.748,10.049-16.697,19.168
			C448.456,167.171,440.281,172.521,433.871,172.521z"/>
	</g>
</g>
</svg>
