<?xml version="1.0" encoding="UTF-8" standalone="no"?>
<svg
   xmlns:dc="http://purl.org/dc/elements/1.1/"
   xmlns:cc="http://creativecommons.org/ns#"
   xmlns:rdf="http://www.w3.org/1999/02/22-rdf-syntax-ns#"
   xmlns:svg="http://www.w3.org/2000/svg"
   xmlns="http://www.w3.org/2000/svg"
   xmlns:sodipodi="http://sodipodi.sourceforge.net/DTD/sodipodi-0.dtd"
   xmlns:inkscape="http://www.inkscape.org/namespaces/inkscape"
   version="1.1"
   x="0px"
   y="0px"
   width="96.4245"
   height="83.949997"
   viewBox="0 0 96.4245 83.949999"
   enable-background="new 0 0 100 100"
   xml:space="preserve"
   id="svg2"
   inkscape:version="0.91 r13725"
   sodipodi:docname="bulb.svg"><metadata
     id="metadata40"><rdf:RDF><cc:Work
         rdf:about=""><dc:format>image/svg+xml</dc:format><dc:type
           rdf:resource="http://purl.org/dc/dcmitype/StillImage" /><dc:title></dc:title></cc:Work></rdf:RDF></metadata><defs
     id="defs38" /><sodipodi:namedview
     pagecolor="#ffffff"
     bordercolor="#666666"
     borderopacity="1"
     objecttolerance="10"
     gridtolerance="10"
     guidetolerance="10"
     inkscape:pageopacity="0"
     inkscape:pageshadow="2"
     inkscape:window-width="1280"
     inkscape:window-height="708"
     id="namedview36"
     showgrid="false"
     inkscape:zoom="3.5779603"
     inkscape:cx="58.453641"
     inkscape:cy="41.092806"
     inkscape:window-x="0"
     inkscape:window-y="0"
     inkscape:window-maximized="1"
     inkscape:current-layer="layer4"
     fit-margin-top="10"
     fit-margin-left="10"
     fit-margin-right="10"
     fit-margin-bottom="10" /><g
     id="Captions"
     transform="translate(-0.40449154,-8.2226285)" /><g
     inkscape:groupmode="layer"
     id="layer5"
     inkscape:label="Backdrop"
     style="display:inline"
     transform="translate(-0.40449154,-8.2226285)"><g
       transform="matrix(0.31201707,-0.21847671,0.21847669,0.31201707,-20.253537,38.146259)"
       id="g7"
       style="fill:#fba684;fill-opacity:1"><path
         style="fill:#fba684;fill-opacity:1"
         inkscape:connector-curvature="0"
         d="M 217.092,178.731 C 189.621,229.283 148.475,228.25 92.652,197.916 36.829,167.581 13.576,133.619 41.047,83.067 c 27.47,-50.55 68.616,-49.519 124.439,-19.184 55.823,30.335 79.075,64.299 51.606,114.848 z"
         id="path9" /></g></g><g
     inkscape:groupmode="layer"
     id="layer4"
     inkscape:label="Bulb"
     transform="translate(-0.40449154,-8.2226285)"><g
       transform="translate(-1.620608,-0.4613715)"
       id="Your_Icon"><g
         id="g6"><path
           inkscape:connector-curvature="0"
           d="M 45.44,68.868 C 45.415,68.867 45.396,68.867 45.375,68.866 44.139,68.809 43.823,67.65 43.489,66.423 43.008,64.656 42.203,61.699 39.395,58.544 34.538,53.082 33.11,45.325 35.84,39.241 c 2.443,-5.443 7.831,-8.565 14.781,-8.565 6.95,0 12.338,3.122 14.781,8.565 2.73,6.084 1.303,13.841 -3.555,19.303 -3.146,3.536 -4.741,5.65 -4.741,6.282 0,0.595 -0.398,1.115 -0.973,1.271 -10.134,2.746 -10.473,2.771 -10.693,2.771 z"
           id="path4170"
           style="fill:#213b4e;fill-opacity:0.94117647" /><path
           inkscape:connector-curvature="0"
           id="path8"
           style="fill:#fff249;fill-opacity:1"
           d="m 50.622,33.308 c -5.954,0 -10.351,2.49 -12.38,7.011 -2.314,5.155 -1.061,11.776 3.12,16.475 3.22,3.62 4.161,7.081 4.667,8.94 0.026,0.099 0.055,0.204 0.084,0.308 1.74,-0.443 5.637,-1.486 8.543,-2.272 0.423,-1.23 1.721,-3.035 5.226,-6.976 4.181,-4.699 5.435,-11.32 3.12,-16.475 -2.029,-4.521 -6.426,-7.011 -12.38,-7.011 z" /><path
           inkscape:connector-curvature="0"
           d="m 50.291,82.634 c -0.588,0 -1.123,-0.396 -1.274,-0.992 -0.179,-0.704 0.247,-1.421 0.951,-1.6 l 6.513,-1.656 c 0.701,-0.176 1.421,0.246 1.6,0.951 0.179,0.704 -0.247,1.421 -0.951,1.6 l -6.513,1.656 c -0.109,0.027 -0.219,0.041 -0.326,0.041 z"
           id="path10"
           style="fill:#213b4e;fill-opacity:0.94117647" /><path
           inkscape:connector-curvature="0"
           d="m 45.206,76.581 c -0.585,0 -1.119,-0.394 -1.272,-0.985 -0.183,-0.704 0.239,-1.422 0.942,-1.604 l 11.598,-3.011 c 0.706,-0.188 1.422,0.24 1.604,0.942 0.183,0.704 -0.239,1.422 -0.942,1.604 l -11.598,3.011 c -0.111,0.029 -0.223,0.043 -0.332,0.043 z"
           id="path12"
           style="fill:#213b4e;fill-opacity:0.94117647" /><path
           inkscape:connector-curvature="0"
           d="m 45.206,80.331 c -0.585,0 -1.119,-0.394 -1.272,-0.985 -0.183,-0.704 0.239,-1.422 0.942,-1.604 l 11.598,-3.011 c 0.706,-0.187 1.422,0.24 1.604,0.942 0.183,0.704 -0.239,1.422 -0.942,1.604 l -11.598,3.011 c -0.111,0.029 -0.223,0.043 -0.332,0.043 z"
           id="path14"
           style="fill:#213b4e;fill-opacity:0.94117647" /><path
           inkscape:connector-curvature="0"
           style="fill:#213b4e;fill-opacity:0.94117647;stroke:none;stroke-width:0;stroke-linecap:round;stroke-linejoin:round;stroke-miterlimit:4;stroke-dasharray:none;stroke-opacity:1"
           d="m 45.206,72.831 c -0.585,0 -1.119,-0.394 -1.272,-0.985 -0.183,-0.704 0.239,-1.422 0.942,-1.604 l 11.598,-3.011 c 0.706,-0.188 1.422,0.239 1.604,0.942 0.183,0.704 -0.239,1.422 -0.942,1.604 l -11.598,3.011 c -0.111,0.029 -0.223,0.043 -0.332,0.043 z"
           id="path16" /></g><path
         inkscape:connector-curvature="0"
         d="m 28.477,49.127 -5.375,0 c -0.727,0 -1.316,-0.589 -1.316,-1.316 0,-0.727 0.59,-1.316 1.316,-1.316 l 5.375,0 c 0.727,0 1.316,0.589 1.316,1.316 0,0.727 -0.59,1.316 -1.316,1.316 z"
         id="path18"
         style="fill:#213b4e;fill-opacity:0.94117647" /><path
         inkscape:connector-curvature="0"
         d="m 31.481,37.909 c -0.224,0 -0.45,-0.057 -0.657,-0.177 L 26.17,35.044 c -0.629,-0.363 -0.845,-1.168 -0.481,-1.798 0.364,-0.63 1.17,-0.843 1.798,-0.481 l 4.654,2.688 c 0.629,0.363 0.845,1.168 0.481,1.798 -0.244,0.422 -0.686,0.658 -1.141,0.658 z"
         id="path20"
         style="fill:#213b4e;fill-opacity:0.94117647" /><path
         inkscape:connector-curvature="0"
         d="m 39.696,29.696 c -0.454,0 -0.896,-0.236 -1.141,-0.658 l -2.688,-4.654 c -0.363,-0.629 -0.147,-1.435 0.481,-1.798 0.628,-0.363 1.434,-0.148 1.798,0.481 l 2.688,4.654 c 0.363,0.629 0.147,1.435 -0.481,1.798 -0.207,0.12 -0.433,0.177 -0.657,0.177 z"
         id="path22"
         style="fill:#213b4e;fill-opacity:0.94117647" /><path
         inkscape:connector-curvature="0"
         d="m 50.914,26.69 c -0.727,0 -1.316,-0.589 -1.316,-1.316 l 0,-5.374 c 0,-0.727 0.59,-1.316 1.316,-1.316 0.726,0 1.316,0.589 1.316,1.316 l 0,5.374 c 0,0.727 -0.589,1.316 -1.316,1.316 z"
         id="path24"
         style="fill:#213b4e;fill-opacity:0.94117647" /><path
         inkscape:connector-curvature="0"
         d="m 62.132,29.697 c -0.224,0 -0.45,-0.057 -0.657,-0.177 -0.629,-0.363 -0.845,-1.168 -0.481,-1.798 l 2.688,-4.654 c 0.364,-0.629 1.17,-0.844 1.798,-0.481 0.629,0.363 0.845,1.168 0.481,1.798 l -2.688,4.654 c -0.245,0.422 -0.687,0.658 -1.141,0.658 z"
         id="path26"
         style="fill:#213b4e;fill-opacity:0.94117647" /><path
         inkscape:connector-curvature="0"
         d="m 70.347,37.91 c -0.454,0 -0.896,-0.236 -1.141,-0.658 -0.363,-0.629 -0.147,-1.435 0.481,-1.798 l 4.654,-2.688 c 0.627,-0.363 1.434,-0.148 1.798,0.481 0.363,0.629 0.147,1.435 -0.481,1.798 l -4.654,2.688 c -0.207,0.12 -0.434,0.177 -0.657,0.177 z"
         id="path28"
         style="fill:#213b4e;fill-opacity:0.94117647" /><path
         inkscape:connector-curvature="0"
         d="m 74.999,63.035 c -0.224,0 -0.45,-0.057 -0.657,-0.177 L 69.688,60.17 c -0.629,-0.363 -0.845,-1.168 -0.481,-1.798 0.364,-0.629 1.17,-0.846 1.798,-0.481 l 4.654,2.688 c 0.629,0.363 0.845,1.168 0.481,1.798 -0.244,0.422 -0.687,0.658 -1.141,0.658 z"
         id="path30"
         style="fill:#213b4e;fill-opacity:0.94117647" /><path
         inkscape:connector-curvature="0"
         d="M 39.694,67.243"
         id="path32"
         style="fill:#213b4e;fill-opacity:0.94117647" /><path
         inkscape:connector-curvature="0"
         d="m 26.829,63.033 c -0.454,0 -0.896,-0.236 -1.141,-0.658 -0.363,-0.63 -0.147,-1.435 0.481,-1.798 l 4.654,-2.688 c 0.628,-0.364 1.434,-0.148 1.798,0.481 0.363,0.63 0.147,1.435 -0.481,1.798 l -4.654,2.688 c -0.207,0.121 -0.433,0.177 -0.657,0.177 z"
         id="path34"
         style="fill:#213b4e;fill-opacity:0.94117647" /></g></g><g
     inkscape:groupmode="layer"
     id="layer6"
     inkscape:label="Bulb Shadow"
     transform="translate(-0.40449154,-8.2226285)"><path
       style="fill:#f5c222;fill-opacity:1"
       d="m 49.001953,32.845703 c -2.223079,0 -4.229818,0.349164 -5.976562,1.019531 1.280696,-0.303791 2.672366,-0.458984 4.160156,-0.458984 5.954,0 10.349906,2.488766 12.378906,7.009766 2.315,5.155 0.782563,11.078343 -3.398437,15.777343 -3.441758,3.869891 -4.476988,6.33685 -4.914063,7.589844 0.664351,-0.178677 1.176584,-0.310534 1.783203,-0.474609 0.423,-1.23 1.721563,-3.035563 5.226563,-6.976563 4.181,-4.699 5.43414,-11.319609 3.11914,-16.474609 -2.029,-4.521 -6.424906,-7.011719 -12.378906,-7.011719 z"
       id="path4426"
       inkscape:connector-curvature="0" /></g></svg>