<?xml version="1.0" encoding="utf-8"?>
<!-- Generator: Adobe Illustrator 16.0.4, SVG Export Plug-In . SVG Version: 6.00 Build 0)  -->
<!DOCTYPE svg PUBLIC "-//W3C//DTD SVG 1.1//EN" "http://www.w3.org/Graphics/SVG/1.1/DTD/svg11.dtd">
<svg version="1.1" id="Layer_1" xmlns="http://www.w3.org/2000/svg" xmlns:xlink="http://www.w3.org/1999/xlink" x="0px" y="0px"
	 width="380px" height="380px" viewBox="0 0 380 380" enable-background="new 0 0 380 380" xml:space="preserve">
<g>
	<path fill="#77EDCB" d="M338.379,235.444c-25.354,83.818-87.996,94.667-182.279,66.147c-94.281-28.52-140.405-72.272-115.05-156.09
		c25.354-83.817,87.998-94.668,182.279-66.147C317.609,107.874,363.734,151.627,338.379,235.444z"/>
</g>
<g>
	<g>
		<g>
			<path fill="#FF7847" d="M247.246,183.76L105.424,295.113c-8.652,6.793-20.673,7.409-26.713,1.369s-5.425-18.062,1.368-26.713
				L191.43,127.946"/>
		</g>
		<g>
			<path fill="#213B4D" d="M90.005,305.685c-5.71,0-11.04-1.877-14.829-5.666c-7.917-7.917-7.491-22.561,0.971-33.337
				l111.351-141.824c1.705-2.171,4.848-2.551,7.02-0.845c2.172,1.705,2.551,4.848,0.846,7.021L84.012,272.857
				c-5.121,6.521-5.946,15.909-1.766,20.089c4.181,4.182,13.568,3.354,20.091-1.766l141.821-111.354
				c2.172-1.704,5.315-1.327,7.02,0.845c1.706,2.172,1.328,5.315-0.844,7.021L108.512,299.046
				C102.895,303.457,96.224,305.685,90.005,305.685z"/>
		</g>
	</g>
	<g>
		<path fill="#A84F2F" d="M247.246,183.76L105.424,295.113c-8.652,6.793-17.927,10.155-20.612,7.471s2.05-10.621,10.522-17.638
			l138.444-114.651"/>
	</g>
	<g>
		<path fill="#A84F2F" d="M247.246,183.76c-5.477,5.477-22.404-2.583-37.816-17.995c-15.416-15.413-23.474-32.345-18-37.819
			c5.473-5.474,22.408,2.587,37.818,17.996C244.66,161.355,252.719,178.287,247.246,183.76z"/>
		<path fill="#213B4D" d="M242.324,190.477c-9.409,0-23.369-8.114-36.431-21.176c-7.849-7.847-14.174-16.379-17.812-24.023
			c-5.611-11.79-3.198-17.855-0.187-20.867c1.45-1.45,4.095-3.18,8.453-3.18c9.412,0,23.373,8.114,36.437,21.176
			c7.847,7.848,14.172,16.379,17.81,24.023c5.611,11.79,3.199,17.854,0.188,20.866C249.33,188.746,246.685,190.477,242.324,190.477z
			 M196.348,131.23c-0.939,0-1.328,0.198-1.382,0.25c-0.265,0.265-0.957,2.981,2.146,9.499c3.16,6.641,8.791,14.188,15.854,21.25
			c11.979,11.979,23.837,18.247,29.359,18.247c0.941,0,1.332-0.199,1.386-0.252c0.265-0.265,0.956-2.98-2.146-9.498
			c-3.16-6.641-8.79-14.188-15.852-21.25C213.732,137.498,201.872,131.23,196.348,131.23z"/>
	</g>
	<g>
		<path fill="#6BE373" d="M286.742,175.823c-11.029,0-67.404-19.969-67.404-19.969s56.375-19.967,67.404-19.967
			c11.027,0,19.969,8.939,19.969,19.968S297.77,175.823,286.742,175.823z"/>
		<path fill="#213B4D" d="M286.742,180.823c-11.555,0-63.221-18.183-69.073-20.256c-1.996-0.707-3.331-2.595-3.331-4.713
			c0-2.118,1.335-4.006,3.331-4.713c5.854-2.073,57.519-20.254,69.073-20.254c13.768,0,24.969,11.201,24.969,24.968
			S300.51,180.823,286.742,180.823z M234.627,155.854c20.816,7.052,46.117,14.969,52.115,14.969c8.254,0,14.969-6.714,14.969-14.968
			s-6.715-14.968-14.969-14.968C280.744,140.887,255.443,148.803,234.627,155.854z"/>
	</g>
	<g>
		<path fill="#428C47" d="M306.711,155.855c0,11.028-8.941,19.968-19.969,19.968c-11.029,0-67.404-19.969-67.404-19.969"/>
		<path fill="#213B4D" d="M286.742,180.823c-11.555,0-63.22-18.183-69.073-20.256c-2.603-0.922-3.966-3.779-3.044-6.382
			c0.922-2.604,3.781-3.967,6.383-3.043c21.483,7.609,58.327,19.682,65.734,19.682c8.254,0,14.969-6.714,14.969-14.968
			c0-2.761,2.238-5,5-5c2.761,0,5,2.239,5,5C311.711,169.622,300.51,180.823,286.742,180.823z"/>
	</g>
	<g>
		<path fill="#6BE373" d="M296.748,113.826c-9.77,9.773-77.41,42.028-77.41,42.028s32.256-67.641,42.029-77.412
			c9.771-9.77,25.615-9.771,35.385-0.002C306.521,88.211,306.521,104.057,296.748,113.826z"/>
		<path fill="#213B4D" d="M219.34,160.854c-1.299,0-2.578-0.505-3.537-1.464c-1.497-1.498-1.889-3.776-0.978-5.688
			c3.339-7.002,32.917-68.708,43.007-78.796c5.672-5.669,13.211-8.792,21.23-8.792c8.019,0,15.557,3.122,21.226,8.791
			c5.669,5.671,8.791,13.21,8.79,21.23c0,8.02-3.124,15.559-8.795,21.228c-10.085,10.089-71.79,39.666-78.793,43.005
			C220.803,160.695,220.068,160.854,219.34,160.854z M279.062,76.114c-5.349,0-10.377,2.083-14.16,5.864
			c-5.72,5.719-22.14,37.276-34.806,63.118c25.843-12.667,57.399-29.086,63.115-34.805c3.783-3.782,5.866-8.809,5.866-14.158
			c0.001-5.348-2.081-10.376-5.861-14.158C289.438,78.195,284.41,76.114,279.062,76.114z"/>
	</g>
	<g>
		<path fill="#428C47" d="M296.752,78.44c9.77,9.771,9.77,25.617-0.004,35.386c-9.77,9.773-77.41,42.028-77.41,42.028"/>
		<path fill="#213B4D" d="M219.342,160.855c-1.867,0-3.659-1.051-4.517-2.849c-1.188-2.493-0.132-5.477,2.361-6.666
			c26.878-12.817,69.306-34.327,76.026-41.05c3.782-3.782,5.865-8.809,5.865-14.158c0.001-5.348-2.081-10.376-5.861-14.158
			c-1.953-1.953-1.952-5.119,0.001-7.071c1.952-1.953,5.118-1.952,7.071,0.001c5.668,5.671,8.79,13.21,8.789,21.229
			c0,8.02-3.124,15.559-8.795,21.228c-10.085,10.089-71.79,39.666-78.793,43.005C220.796,160.698,220.063,160.855,219.342,160.855z"
			/>
	</g>
	<g>
		<path fill="#6BE373" d="M239.307,88.45c0.002,11.029-19.969,67.404-19.969,67.404s-19.967-56.375-19.965-67.404
			c-0.002-11.028,8.939-19.967,19.965-19.969C230.367,68.483,239.309,77.421,239.307,88.45z"/>
		<path fill="#213B4D" d="M219.338,160.854L219.338,160.854c-2.117,0-4.006-1.334-4.713-3.331
			c-2.072-5.854-20.254-57.519-20.252-69.075c-0.002-13.764,11.197-24.965,24.965-24.968c13.771,0.002,24.972,11.204,24.969,24.97
			c0.002,11.554-18.182,63.22-20.255,69.073C223.344,159.52,221.456,160.854,219.338,160.854z M219.338,73.481
			c-8.252,0.001-14.966,6.716-14.965,14.968c0,6,7.914,31.302,14.966,52.117c7.053-20.816,14.97-46.118,14.968-52.115
			C234.309,80.197,227.594,73.482,219.338,73.481z"/>
	</g>
	<g>
		<path fill="#428C47" d="M219.338,68.481c11.029,0.002,19.971,8.94,19.969,19.969c0.002,11.029-19.969,67.404-19.969,67.404"/>
		<path fill="#213B4D" d="M219.338,160.855c-0.554,0-1.117-0.093-1.669-0.289c-2.603-0.922-3.966-3.779-3.044-6.382
			c7.61-21.484,19.684-58.327,19.682-65.734c0.001-3.999-1.556-7.757-4.383-10.584c-2.828-2.827-6.587-4.385-10.586-4.385
			c-2.762,0-5-2.239-5-5.001c0.001-2.761,2.239-4.999,5-4.999c0.001,0,0.001,0,0.002,0c6.669,0.001,12.938,2.599,17.654,7.313
			c4.717,4.716,7.314,10.987,7.312,17.656c0.002,11.554-18.182,63.22-20.256,69.073
			C223.325,159.574,221.396,160.855,219.338,160.855z"/>
	</g>
	<g>
		<path fill="#A84F2F" d="M176.246,203.689c-14.332-14.332-21.825-30.076-16.734-35.168"/>
		<path fill="#213B4D" d="M176.246,208.689c-1.28,0-2.559-0.488-3.536-1.465c-14.2-14.2-25.495-33.476-16.735-42.238
			c1.952-1.954,5.118-1.955,7.071-0.001c1.953,1.952,1.954,5.118,0.001,7.071c-1.175,1.91,2.139,13.504,16.734,28.099
			c1.952,1.952,1.952,5.118,0,7.07C178.805,208.201,177.525,208.689,176.246,208.689z"/>
	</g>
	<g>
		<path fill="#A84F2F" d="M124.367,249.422c-9.112-9.115-13.879-19.125-10.642-22.363"/>
		<path fill="#213B4D" d="M124.367,254.422c-1.28,0-2.56-0.488-3.536-1.465c-9.971-9.975-17.129-22.944-10.642-29.434
			c1.953-1.953,5.119-1.952,7.071-0.001c1.794,1.793,1.94,4.61,0.439,6.571c0.007,2.052,2.877,8.465,10.204,15.793
			c1.953,1.953,1.952,5.119-0.001,7.071C126.926,253.934,125.646,254.422,124.367,254.422z"/>
	</g>
	<g>
		<path fill="#A84F2F" d="M153.84,228.705c9.113,9.111,19.125,13.879,22.363,10.641"/>
		<path fill="#213B4D" d="M173.368,245.367c-6.802,0-15.739-5.804-23.063-13.126c-1.953-1.952-1.953-5.118,0-7.071
			c1.952-1.952,5.118-1.952,7.071-0.001c7.328,7.326,13.74,10.195,15.792,10.203c1.96-1.502,4.777-1.356,6.571,0.438
			c1.953,1.952,1.953,5.118,0,7.07C178.015,244.605,175.831,245.367,173.368,245.367z"/>
	</g>
	<g>
		<path fill="#213B4D" d="M90.005,305.685c-5.71,0-11.04-1.877-14.829-5.666c-7.917-7.917-7.491-22.561,0.971-33.337
			l111.351-141.824c1.705-2.171,4.848-2.551,7.02-0.845c2.172,1.705,2.551,4.848,0.846,7.021L84.012,272.857
			c-5.121,6.521-5.946,15.909-1.766,20.089c4.181,4.182,13.568,3.354,20.091-1.766l141.821-111.354
			c2.172-1.704,5.315-1.327,7.02,0.845c1.706,2.172,1.328,5.315-0.844,7.021L108.512,299.046
			C102.895,303.457,96.224,305.685,90.005,305.685z"/>
	</g>
</g>
</svg>
