<?xml version="1.0" encoding="utf-8"?>
<!-- Generator: Adobe Illustrator 16.0.4, SVG Export Plug-In . SVG Version: 6.00 Build 0)  -->
<!DOCTYPE svg PUBLIC "-//W3C//DTD SVG 1.1//EN" "http://www.w3.org/Graphics/SVG/1.1/DTD/svg11.dtd">
<svg version="1.1" id="Layer_1" xmlns="http://www.w3.org/2000/svg" xmlns:xlink="http://www.w3.org/1999/xlink" x="0px" y="0px"
	 width="380px" height="380px" viewBox="0 0 380 380" enable-background="new 0 0 380 380" xml:space="preserve">
<g>
	<path fill="#D9F399" d="M338.182,234.984c-25.355,83.818-87.996,94.667-182.28,66.147c-94.281-28.52-140.405-72.272-115.05-156.09
		s87.997-94.668,182.278-66.147C317.412,107.414,363.537,151.167,338.182,234.984z"/>
</g>
<g>
	<g>
		<path fill="#78D7FF" d="M308.559,249.735c0,11-9,20-20,20H90.475c-11,0-20-9-20-20V133.107c0-11,9-20,20-20h198.083
			c11,0,20,9,20,20V249.735z"/>
	</g>
	<g>
		<path fill="#4F8EA8" d="M308.559,249.735c0,11-3.822,20-8.492,20s-8.492-9-8.492-20V133.107c0-11,3.822-20,8.492-20
			s8.492,9,8.492,20V249.735z"/>
	</g>
	<g>
		<path fill="#213B4D" d="M288.559,274.735H90.475c-13.785,0-25-11.215-25-25V133.107c0-13.785,11.215-25,25-25h198.083
			c13.785,0,25,11.215,25,25v116.628C313.559,263.521,302.344,274.735,288.559,274.735z M90.475,118.107c-8.271,0-15,6.729-15,15
			v116.628c0,8.271,6.729,15,15,15h198.083c8.271,0,15-6.729,15-15V133.107c0-8.271-6.729-15-15-15H90.475z"/>
	</g>
	<g>
		<rect x="70.475" y="142.195" fill="#213B4D" width="238.083" height="39.999"/>
	</g>
	<g>
		<path fill="#213B4D" d="M154.977,237.195h-49.334c-2.761,0-5-2.238-5-5s2.239-5,5-5h49.334c2.761,0,5,2.238,5,5
			S157.738,237.195,154.977,237.195z"/>
	</g>
	<g>
		<path fill="#213B4D" d="M200.311,214.973h-94.667c-2.761,0-5-2.238-5-5s2.239-5,5-5h94.667c2.762,0,5,2.238,5,5
			S203.072,214.973,200.311,214.973z"/>
	</g>
</g>
</svg>
