<?xml version="1.0" encoding="UTF-8"?>
<svg width="70px" height="56px" viewBox="0 0 70 56" version="1.1" xmlns="http://www.w3.org/2000/svg" xmlns:xlink="http://www.w3.org/1999/xlink">
    <!-- Generator: Sketch 44.1 (41455) - http://www.bohemiancoding.com/sketch -->
    <title>frappe-logo</title>
    <desc>Created with Sketch.</desc>
    <defs></defs>
    <g id="Page-1" stroke="none" stroke-width="1" fill="none" fill-rule="evenodd">
        <g id="frappe-logo" transform="translate(-9.000000, -17.000000)" fill-rule="nonzero" fill="#FFFFFF">
            <path d="M18.908441,17.38814 C18.885941,17.3875 18.864441,17.39214 18.842341,17.39314 C18.789441,17.39014 18.735501,17.39114 18.681111,17.39914 C18.499331,17.42574 18.313001,17.51806 18.143681,17.69628 L18.025851,17.85337 L9.294091,29.50021 C8.900971,30.03036 9.269991,30.87796 10.063031,30.7885 L19.551861,29.4351 L21.578611,43.64715 C21.617411,43.93665 21.770321,44.15552 21.972901,44.29104 C21.989401,44.44655 22.054201,44.60459 22.185811,44.74476 L36.863981,59.67718 C36.959381,59.77178 37.070161,59.83412 37.185921,59.872 L48.892701,71.78135 C49.487711,72.34041 50.446251,71.94137 50.446101,71.11937 L50.641431,47.21334 L77.920391,20.35193 C78.470671,19.82842 78.063451,18.97224 77.381921,18.99439 L47.817831,18.75513 C47.504561,18.75313 47.324361,18.91476 47.253011,18.98302 L27.317271,38.61387 L34.016091,29.67849 C34.373521,29.18883 34.168161,28.63729 33.830061,28.38245 L19.428871,17.56657 C19.254761,17.4477 19.077001,17.39304 18.908491,17.38829 L18.908441,17.38814 Z" id="path846"></path>
        </g>
    </g>
</svg>