<?xml version="1.0" encoding="utf-8"?>
<!-- Generator: Adobe Illustrator 16.0.4, SVG Export Plug-In . SVG Version: 6.00 Build 0)  -->
<!DOCTYPE svg PUBLIC "-//W3C//DTD SVG 1.1//EN" "http://www.w3.org/Graphics/SVG/1.1/DTD/svg11.dtd">
<svg version="1.1" id="Layer_1" xmlns="http://www.w3.org/2000/svg" xmlns:xlink="http://www.w3.org/1999/xlink" x="0px" y="0px"
	 width="600px" height="600px" viewBox="0 0 600 600" enable-background="new 0 0 600 600" xml:space="preserve">
<g>
	<path fill="#FFF268" d="M507.295,300c0,126.997-75.831,168.362-207.295,168.362S92.705,426.996,92.705,300
		c0-126.996,75.831-168.361,207.295-168.361S507.295,173.003,507.295,300z"/>
</g>
<g>
	<g>
		<path fill="#FFFBCD" d="M138.639,471.19c16.485-4.211,48.178-14.596,53.617-20.034c7.294-7.294,29.121-48.184,29.121-48.184
			l-24.299-24.299c0,0-40.576,21.42-48.23,29.075c-5.7,5.7-15.938,37.186-20.07,53.607c-3.151-0.768-5.199,1.48-7.662,3.943
			c-3.752,3.752-3.75,9.835,0.002,13.588c3.752,3.752,9.836,3.754,13.588,0.002C137.176,476.419,139.422,474.352,138.639,471.19z"/>
	</g>
	<g>
		<path fill="#FFF69C" d="M221.377,402.973c0,0-0.204,0.382-0.578,1.079c-3.506,6.514-21.955,40.517-28.543,47.104
			c-5.439,5.438-37.132,15.823-53.617,20.034c0.783,3.161-1.463,5.229-3.934,7.699c-3.752,3.752-9.836,3.75-13.588-0.002
			c-16.217-16.218,32.165-12.953,59.773-34.933C201.181,427.803,214.981,396.577,221.377,402.973z"/>
	</g>
	<g>
		<g>
			<path fill="#FFF268" d="M235.939,407.473c-2.723,2.722-7.178,2.722-9.899,0l-33.508-33.508c-2.722-2.722-2.722-7.177,0-9.899
				l3.297-3.297c2.722-2.722,7.177-2.722,9.899,0l33.508,33.508c2.721,2.722,2.722,7.178,0,9.899L235.939,407.473z"/>
		</g>
		<g>
			<path fill="#A8A045" d="M235.939,407.473c-2.723,2.722-5.52,4.381-6.213,3.686l-8.553-8.552
				c-0.695-0.695,0.965-3.491,3.687-6.213l3.297-3.297c2.722-2.722,5.518-4.381,6.212-3.687l8.553,8.553
				c0.695,0.694-0.964,3.491-3.686,6.213L235.939,407.473z"/>
		</g>
		<g>
			<path fill="none" d="M235.939,407.473c-2.723,2.722-7.178,2.722-9.899,0l-33.508-33.508c-2.722-2.722-2.722-7.177,0-9.899
				l3.297-3.297c2.722-2.722,7.177-2.722,9.899,0l33.508,33.508c2.721,2.722,2.722,7.178,0,9.899L235.939,407.473z"/>
		</g>
	</g>
	<g>
		<polygon fill="#FFF268" points="207.833,362.874 237.131,392.171 318.805,323.694 276.311,281.199 		"/>
	</g>
	<g>
		<polygon fill="#A8A045" points="228.539,383.579 237.131,392.171 318.805,323.694 309.979,314.868 		"/>
	</g>
	<g>
		<polygon fill="#5E3BA8" points="469.387,173.111 426.893,130.616 276.311,281.198 276.311,281.199 318.805,323.694 
			318.806,323.693 		"/>
	</g>
	<g>
		<polygon fill="#4A2F85" points="469.387,173.111 460.561,164.285 309.979,314.867 309.979,314.868 318.805,323.694 
			318.806,323.693 		"/>
	</g>
	<g>
		<path fill="#8E59FF" d="M472.906,169.593c11.734-11.734,11.734-30.76,0-42.494c-11.734-11.735-30.761-11.735-42.494-0.001
			l-3.52,3.519l42.494,42.495L472.906,169.593z"/>
	</g>
	<g>
		<path fill="#5E3BA8" d="M469.387,173.111l3.52-3.519c11.734-11.734,12.277-30.217,0-42.494
			c3.269,25.194-12.018,37.515-12.018,37.515S467.629,171.354,469.387,173.111z"/>
	</g>
	<g>
		<line fill="none" x1="209.204" y1="390.8" x2="165.16" y2="434.843"/>
	</g>
	<g>
		<path fill="#213B4D" d="M127.913,486.703L127.913,486.703c-3.903-0.001-7.572-1.521-10.332-4.28
			c-5.696-5.696-5.697-14.964-0.002-20.658l0.334-0.335c1.813-1.82,3.973-3.989,6.947-4.849
			c3.954-14.604,13.62-45.535,20.452-52.367c7.958-7.96,45.21-27.733,49.432-29.962c1.939-1.022,4.318-0.665,5.869,0.887
			l24.299,24.299c1.557,1.557,1.912,3.947,0.875,5.89c-2.27,4.252-22.396,41.765-29.996,49.364
			c-6.632,6.632-37.664,16.377-52.343,20.395c-0.864,3.009-3.106,5.244-4.905,7.038l-0.303,0.301
			C135.482,485.184,131.814,486.703,127.913,486.703z M127.594,466.215c-0.467,0.136-1.748,1.421-2.595,2.271l-0.348,0.349
			c-1.797,1.797-1.796,4.72,0.001,6.518c0.871,0.87,2.029,1.35,3.261,1.351c1.23,0,2.387-0.479,3.257-1.349l0.312-0.312
			c0.863-0.861,2.168-2.162,2.324-2.682c-0.66-2.666,0.933-5.335,3.594-6.015c19.114-4.882,47.434-14.84,51.319-18.725
			c4.644-4.645,17.753-27.562,26.493-43.74l-19.055-19.056c-16.062,8.591-38.893,21.576-43.775,26.459
			c-4.137,4.137-13.935,32.129-18.757,51.292C132.956,465.24,130.262,466.865,127.594,466.215z"/>
	</g>
	<g>
		<g>
			<path fill="#213B4D" d="M230.989,410.014c-2.009,0-3.893-0.776-5.303-2.188l-33.508-33.508c-2.924-2.924-2.924-7.682,0-10.606
				l3.297-3.297c1.411-1.411,3.294-2.188,5.304-2.188c2.008,0,3.892,0.776,5.303,2.188l33.508,33.508
				c1.41,1.411,2.188,3.294,2.188,5.303c0,2.01-0.777,3.894-2.188,5.304l-3.297,3.297
				C234.882,409.237,232.998,410.014,230.989,410.014z M200.779,359.228c-1.742,0-3.375,0.673-4.597,1.895l-3.297,3.297
				c-2.534,2.535-2.534,6.658,0,9.192l33.508,33.508c1.222,1.222,2.854,1.895,4.596,1.895s3.374-0.673,4.597-1.895l3.297-3.297
				c1.222-1.222,1.895-2.854,1.895-4.596c0-1.742-0.673-3.375-1.895-4.597l-33.508-33.508
				C204.152,359.9,202.521,359.228,200.779,359.228z"/>
		</g>
		<g>
			<path fill="#213B4D" d="M230.989,414.514c-3.211,0-6.225-1.245-8.485-3.506L188.996,377.5c-4.678-4.678-4.678-12.29,0-16.97
				l3.297-3.297c2.262-2.261,5.275-3.506,8.486-3.506c3.21,0,6.224,1.245,8.484,3.505l33.508,33.509
				c2.261,2.261,3.506,5.273,3.506,8.484c0,3.212-1.245,6.226-3.506,8.486l-3.296,3.296
				C237.214,413.269,234.2,414.514,230.989,414.514z M200.779,363.728c-0.313,0-0.913,0.075-1.415,0.577l-3.296,3.296
				c-0.767,0.767-0.768,2.062-0.001,2.828l33.508,33.509c0.502,0.502,1.102,0.576,1.414,0.576c0.313,0,0.913-0.075,1.415-0.577
				l3.296-3.296c0.502-0.502,0.577-1.102,0.577-1.414c0-0.313-0.075-0.913-0.577-1.415l-33.507-33.508
				C201.691,363.803,201.092,363.728,200.779,363.728z"/>
		</g>
	</g>
	<g>
		<path fill="#213B4D" d="M237.131,397.171c-1.284,0-2.564-0.492-3.536-1.465l-29.297-29.297c-1.833-1.832-1.962-4.762-0.296-6.747
			l68.477-81.675c0.9-1.075,2.212-1.722,3.612-1.783c1.396-0.054,2.764,0.468,3.755,1.46l42.494,42.495
			c0.992,0.991,1.521,2.354,1.46,3.754c-0.062,1.401-0.708,2.712-1.782,3.612l-81.675,68.477
			C239.41,396.784,238.27,397.171,237.131,397.171z M214.607,362.577l22.82,22.82l73.981-62.027l-34.774-34.775L214.607,362.577z"/>
	</g>
	<g>
		<path fill="#213B4D" d="M318.805,328.693c-1.326,0-2.598-0.525-3.535-1.464l-42.495-42.495c-1.952-1.952-1.952-5.118,0-7.07
			l150.583-150.583c0.938-0.938,2.209-1.465,3.535-1.465s2.598,0.526,3.535,1.465l42.495,42.495c1.952,1.952,1.952,5.118,0,7.07
			L322.341,327.229C321.403,328.167,320.131,328.693,318.805,328.693z M283.382,281.198l35.423,35.425l143.512-143.512
			l-35.424-35.424L283.382,281.198z"/>
	</g>
	<g>
		<path fill="#213B4D" d="M469.387,178.111c-1.279,0-2.559-0.488-3.535-1.465l-42.494-42.495c-0.938-0.938-1.465-2.209-1.465-3.535
			s0.527-2.598,1.465-3.536l3.519-3.519c6.62-6.619,15.421-10.265,24.782-10.265c9.362,0,18.164,3.646,24.784,10.267
			c13.665,13.665,13.665,35.899-0.001,49.564l-3.519,3.52C471.946,177.623,470.666,178.111,469.387,178.111z M433.964,130.616
			l35.424,35.424c9.749-9.767,9.744-25.646-0.017-35.406c-4.731-4.731-11.021-7.337-17.713-7.337
			C444.976,123.297,438.692,125.896,433.964,130.616z"/>
	</g>
	<g>
		<path fill="#213B4D" d="M165.16,439.843c-1.279,0-2.559-0.488-3.535-1.465c-1.953-1.952-1.953-5.118,0-7.07l44.043-44.043
			c1.953-1.953,5.119-1.953,7.071,0c1.953,1.952,1.952,5.118,0,7.07l-44.044,44.043C167.72,439.354,166.439,439.843,165.16,439.843z
			"/>
	</g>
</g>
</svg>
