<?xml version="1.0" encoding="utf-8"?>
<!-- Generator: Adobe Illustrator 16.0.4, SVG Export Plug-In . SVG Version: 6.00 Build 0)  -->
<!DOCTYPE svg PUBLIC "-//W3C//DTD SVG 1.1//EN" "http://www.w3.org/Graphics/SVG/1.1/DTD/svg11.dtd">
<svg version="1.1" id="Layer_1" xmlns="http://www.w3.org/2000/svg" xmlns:xlink="http://www.w3.org/1999/xlink" x="0px" y="0px"
	 width="591.129px" height="443.991px" viewBox="0 0 591.129 443.991" enable-background="new 0 0 591.129 443.991"
	 xml:space="preserve">
<g>
	<path fill="#77EDCB" d="M549.519,221.996c0,167.453-96.589,221.995-264.04,221.995s-264.04-54.542-264.04-221.995
		C21.439,54.543,118.028,0,285.479,0S549.519,54.543,549.519,221.996z"/>
</g>
<g>
	<path fill="#FFB2B2" d="M566.359,160.814l-28.349-5.463c-10.956-46.676-52.853-81.43-102.87-81.43
		c-6.48,0-12.822,0.586-18.98,1.703V33.963l-33.973,20.125l-10.713,41.167c-18.078,13.669-31.625,33.012-37.984,55.383
		c-28.049-15.482-62.962-24.667-100.812-24.667c-92.511,0-167.506,54.845-167.506,122.5c0,2.412,0.106,4.805,0.294,7.184
		l7.721,163.557l41.949-2.811l24.41-66.1c26.632,13.053,58.664,20.67,93.132,20.67c26.683,0,51.901-4.57,74.29-12.688l22.271,58.117
		l41.947,2.811v-101.84c11.125-11.938,19.434-25.388,24.242-39.842c12.262,4.977,25.664,7.725,39.711,7.725
		c1.594,0,3.178-0.041,4.753-0.111l-0.039,0.111l1.009-0.156c7.16-0.381,14.13-1.475,20.842-3.213l104.654-16.137
		c9.896,0,17.918-23.49,17.918-52.467C584.277,184.305,576.255,160.814,566.359,160.814z"/>
</g>
<g>
	<polygon fill="#FF8A8A" points="340.582,336.774 368.277,313.325 371.187,419.211 350.984,417.523 	"/>
</g>
<g>
	<polygon fill="#FF8A8A" points="103.984,325.088 143.205,346.642 115.687,415.168 95.484,413.481 	"/>
</g>
<g>
	<polygon fill="#FF8A8A" points="393.984,91.088 416.16,80.625 416.16,38.963 397.019,50.302 	"/>
</g>
<g>
	<ellipse fill="#FF8A8A" cx="566.36" cy="213.281" rx="17.917" ry="52.467"/>
</g>
<g>
	<path fill="#213B4D" d="M371.187,424.211c-0.111,0-0.223-0.004-0.334-0.011l-41.947-2.811c-1.945-0.131-3.638-1.38-4.335-3.2
		l-20.535-53.586c-22.446,7.545-46.425,11.367-71.357,11.367c-32.104,0-63.207-6.494-90.332-18.819l-22.52,60.981
		c-0.683,1.85-2.389,3.125-4.356,3.257l-41.949,2.811c-1.341,0.079-2.66-0.364-3.663-1.258c-1.002-0.895-1.603-2.154-1.667-3.496
		l-7.717-163.479c-0.204-2.612-0.303-5.064-0.303-7.496c0-34.357,18.151-66.554,51.11-90.657
		c32.488-23.759,75.601-36.844,121.396-36.844c35.338,0,69.026,7.742,97.852,22.437c6.947-20.024,19.737-37.939,36.537-51.071
		l10.281-39.507c0.332-1.276,1.155-2.37,2.29-3.042l33.973-20.125c1.547-0.916,3.464-0.932,5.024-0.042s2.524,2.548,2.524,4.344
		V69.8c4.63-0.584,9.312-0.879,13.98-0.879c25.098,0,49.678,8.634,69.213,24.312c18.384,14.754,31.694,35.186,37.731,57.811
		l24.818,4.782c4.977,0.235,11.754,3.793,16.857,18.739c3.558,10.417,5.517,24.166,5.517,38.716c0,14.55-1.959,28.299-5.517,38.716
		c-5.141,15.054-11.979,18.555-16.965,18.743l-104.083,16.048c-6.949,1.783-14.123,2.889-21.33,3.289l-0.764,0.118
		c-0.539,0.082-1.084,0.076-1.608-0.013c-1.341,0.048-2.615,0.071-3.87,0.071c-12.623,0-24.955-2.101-36.734-6.251
		c-4.9,12.562-12.355,24.414-22.219,35.315v99.893c0,1.384-0.574,2.706-1.585,3.651
		C373.673,423.732,372.451,424.211,371.187,424.211z M232.678,130.971c-89.606,0-162.506,52.71-162.506,117.5
		c0,2.191,0.091,4.413,0.278,6.791c0.004,0.052,0.008,0.104,0.01,0.157l7.48,158.462l33.627-2.253l23.288-63.06
		c0.49-1.327,1.52-2.384,2.833-2.91c1.314-0.524,2.787-0.47,4.059,0.152c26.909,13.189,58.352,20.16,90.931,20.16
		c25.492,0,49.913-4.168,72.586-12.388c2.562-0.931,5.397,0.365,6.373,2.911l21.127,55.131l33.423,2.239v-96.493
		c0-1.266,0.479-2.483,1.342-3.409c10.846-11.638,18.637-24.426,23.156-38.011c0.437-1.312,1.396-2.384,2.65-2.963
		c1.253-0.579,2.692-0.613,3.974-0.092c12.029,4.882,24.758,7.357,37.831,7.357c1.445,0,2.927-0.035,4.53-0.106
		c0.159-0.006,0.318-0.006,0.478,0.002c0.148-0.021,0.299-0.037,0.449-0.045c6.712-0.356,13.392-1.387,19.854-3.06
		c0.162-0.042,0.326-0.076,0.492-0.102l104.654-16.137c0.252-0.039,0.507-0.059,0.762-0.059c1.546,0,4.937-3.191,7.938-11.983
		c3.211-9.402,4.979-22.004,4.979-35.484c0-13.479-1.769-26.081-4.979-35.484c-3.003-8.792-6.393-11.983-7.938-11.983
		c-0.317,0-0.635-0.03-0.946-0.09l-28.349-5.463c-1.936-0.373-3.471-1.848-3.921-3.767c-5.098-21.717-17.545-41.413-35.05-55.461
		c-18.023-14.465-39.792-22.111-62.953-22.111c-6.064,0-12.149,0.546-18.088,1.623c-1.459,0.265-2.96-0.132-4.098-1.082
		c-1.138-0.95-1.795-2.355-1.795-3.838V42.736L386.507,57.34l-10.194,39.173c-0.283,1.089-0.926,2.05-1.823,2.729
		c-17.407,13.162-30.26,31.9-36.19,52.762c-0.417,1.466-1.479,2.662-2.887,3.248c-1.408,0.586-3.005,0.499-4.339-0.238
		C302.577,139.285,268.552,130.971,232.678,130.971z"/>
</g>
<g>
	<g>
		<path fill="#213B4D" d="M43.822,205.512c-5.632,0-10.927-2.193-14.91-6.176c-3.982-3.983-6.176-9.278-6.176-14.91
			s2.194-10.927,6.176-14.91c3.983-3.982,9.278-6.176,14.911-6.176c5.632,0,10.927,2.193,14.91,6.175
			c8.221,8.223,8.221,21.6,0,29.821C54.75,203.319,49.455,205.512,43.822,205.512z M43.823,173.341c-2.961,0-5.746,1.153-7.84,3.247
			c-2.094,2.094-3.247,4.877-3.247,7.838s1.153,5.745,3.248,7.839c2.094,2.094,4.878,3.247,7.839,3.247
			c2.961,0,5.746-1.153,7.84-3.248c4.322-4.321,4.322-11.354,0-15.678C49.568,174.494,46.784,173.341,43.823,173.341z"/>
	</g>
	<g>
		<path fill="#213B4D" d="M32.448,200.801c-1.28,0-2.559-0.488-3.536-1.464L4.991,175.415c-1.953-1.953-1.953-5.119,0-7.071
			c1.954-1.952,5.119-1.951,7.071,0l23.921,23.921c1.953,1.953,1.953,5.119,0,7.071C35.007,200.312,33.727,200.801,32.448,200.801z"
			/>
	</g>
	<g>
		<path fill="#213B4D" d="M78.533,201.387c-1.28,0-2.559-0.488-3.536-1.464l-23.335-23.335c-1.953-1.953-1.953-5.119,0-7.071
			c1.953-1.952,5.118-1.952,7.071,0l23.335,23.335c1.953,1.953,1.953,5.119,0,7.071C81.092,200.898,79.812,201.387,78.533,201.387z"
			/>
	</g>
</g>
<g>
	<path fill="#FFD8D8" d="M333.175,294.659c0,30.547-44.461,55.311-99.305,55.311s-99.307-24.764-99.307-55.311
		S333.175,264.112,333.175,294.659z"/>
</g>
<g>
	<circle fill="#FFFFFF" cx="474.363" cy="146.093" r="24.18"/>
</g>
<g>
	<circle fill="#213B4D" cx="474.364" cy="146.093" r="13.265"/>
</g>
<g>
	<g>
		<path fill="#FF8A8A" d="M280.531,156.381c0,4.187-23.516,7.58-52.522,7.58c-29.008,0-52.521-3.394-52.521-7.58
			s11.09-7.58,52.521-7.58C269.438,148.801,280.531,152.195,280.531,156.381z"/>
	</g>
	<g>
		<path fill="#FFF268" d="M186.304,150.578c0-23.033,18.672-41.705,41.705-41.705s41.705,18.672,41.705,41.705"/>
	</g>
	<g>
		<path fill="#CFC454" d="M255.878,129.368l-14.332-5l14.332-5c2.76-0.963,5.779,0.494,6.744,3.256
			c0.963,2.761-0.494,5.781-3.255,6.744C258.193,129.777,256.968,129.748,255.878,129.368z"/>
	</g>
	<g>
		<path fill="#CFC454" d="M264.617,143.442l-15.57-5l15.57-5c2.762-0.887,5.72,0.633,6.606,3.395
			c0.888,2.761-0.633,5.719-3.395,6.605C266.743,143.791,265.626,143.767,264.617,143.442z"/>
	</g>
	<g>
		<path fill="#FFBABA" d="M280.531,152.658c-15.424-2.523-32.845-3.857-52.503-3.857c-19.672,0-37.106,1.334-52.54,3.859"/>
		<path fill="#213B4D" d="M175.482,157.662c-2.406,0-4.527-1.742-4.929-4.193c-0.446-2.726,1.402-5.296,4.127-5.742
			c15.917-2.604,33.866-3.925,53.348-3.925c19.462,0,37.398,1.32,53.31,3.922c2.725,0.446,4.573,3.017,4.127,5.742
			c-0.446,2.725-3.014,4.57-5.742,4.127c-15.38-2.516-32.773-3.792-51.696-3.792c-18.943,0-36.348,1.276-51.732,3.794
			C176.022,157.64,175.75,157.662,175.482,157.662z"/>
	</g>
	<g>
		<path fill="#213B4D" d="M269.714,155.578c-2.761,0-5-2.239-5-5c0-20.239-16.466-36.705-36.705-36.705
			s-36.705,16.466-36.705,36.705c0,2.761-2.239,5-5,5s-5-2.239-5-5c0-25.753,20.952-46.705,46.705-46.705
			s46.705,20.952,46.705,46.705C274.714,153.339,272.476,155.578,269.714,155.578z"/>
	</g>
</g>
</svg>
