<?xml version="1.0" encoding="utf-8"?>
<!-- Generator: Adobe Illustrator 16.0.4, SVG Export Plug-In . SVG Version: 6.00 Build 0)  -->
<!DOCTYPE svg PUBLIC "-//W3C//DTD SVG 1.1//EN" "http://www.w3.org/Graphics/SVG/1.1/DTD/svg11.dtd">
<svg version="1.1" id="Layer_1" xmlns="http://www.w3.org/2000/svg" xmlns:xlink="http://www.w3.org/1999/xlink" x="0px" y="0px"
	 width="380px" height="380px" viewBox="0 0 380 380" enable-background="new 0 0 380 380" xml:space="preserve">
<g>
	<path fill="#D3F2FF" d="M338.235,234.92c-25.355,83.818-87.997,94.667-182.28,66.147c-94.281-28.52-140.405-72.272-115.05-156.09
		S128.902,50.31,223.184,78.83C317.466,107.35,363.591,151.103,338.235,234.92z"/>
</g>
<g>
	<g>
		<g>
			<path fill="#FF4D4D" d="M189.571,62.676c-43.142,0-78.116,34.974-78.116,78.114c0,87.56,78.116,165.675,78.116,165.675
				s78.115-76.75,78.115-165.675C267.686,97.65,232.712,62.676,189.571,62.676z M189.571,179.288
				c-21.262,0-38.496-17.235-38.496-38.498c0-21.259,17.234-38.494,38.496-38.494c21.261,0,38.498,17.235,38.498,38.494
				C228.068,162.053,210.832,179.288,189.571,179.288z"/>
		</g>
		<g>
			<path fill="#A83333" d="M189.571,306.465c0,0,78.115-76.75,78.115-165.675c0-43.14-34.974-78.114-78.115-78.114
				c0,0,62.726,23.076,62.726,76.025C252.297,216.913,189.571,306.465,189.571,306.465z"/>
		</g>
	</g>
	<g>
		<path fill="#213B4D" d="M189.571,311.465c-1.28,0-2.56-0.488-3.536-1.465c-0.813-0.812-20.137-20.263-39.732-50.84
			c-18.179-28.366-39.848-71.929-39.848-118.37c0-45.829,37.286-83.114,83.116-83.114c45.83,0,83.115,37.285,83.115,83.114
			c0,26.026-6.914,67.778-39.854,118.893c-19.604,30.422-38.942,49.55-39.756,50.349
			C192.102,310.987,190.836,311.465,189.571,311.465z M189.571,67.676c-40.316,0-73.116,32.799-73.116,73.114
			c0,73.878,58.115,142.036,73.144,158.421c15.067-16.192,73.087-83.436,73.087-158.421
			C262.686,100.475,229.887,67.676,189.571,67.676z M189.571,184.288c-23.984,0-43.496-19.513-43.496-43.498
			c0-23.983,19.512-43.494,43.496-43.494c23.985,0,43.498,19.511,43.498,43.494C233.068,164.775,213.556,184.288,189.571,184.288z
			 M189.571,107.296c-18.47,0-33.496,15.025-33.496,33.494c0,18.471,15.026,33.498,33.496,33.498
			c18.47,0,33.498-15.027,33.498-33.498C223.068,122.321,208.041,107.296,189.571,107.296z"/>
	</g>
</g>
</svg>
