<?xml version="1.0" encoding="utf-8"?>
<!-- Generator: Adobe Illustrator 16.0.4, SVG Export Plug-In . SVG Version: 6.00 Build 0)  -->
<!DOCTYPE svg PUBLIC "-//W3C//DTD SVG 1.1//EN" "http://www.w3.org/Graphics/SVG/1.1/DTD/svg11.dtd">
<svg version="1.1" id="Layer_1" xmlns="http://www.w3.org/2000/svg" xmlns:xlink="http://www.w3.org/1999/xlink" x="0px" y="0px"
	 width="380px" height="380px" viewBox="0 0 380 380" enable-background="new 0 0 380 380" xml:space="preserve">
<g>
	<path fill="#FF8A8A" d="M326.145,116.886c41.34,77.197,4.717,129.163-82.117,175.665c-86.834,46.5-150.386,48.178-191.726-29.02
		c-41.34-77.196-4.717-129.164,82.117-175.664C221.253,41.367,284.806,39.689,326.145,116.886z"/>
</g>
<g>
	<g>
		<g>
			<path fill="#E6E6E6" d="M157.425,256.456c9.812,0,18-8.188,18-18s-8.188-18-18-18c-9.812,0-18,8.188-18,18
				S147.612,256.456,157.425,256.456L157.425,256.456z"/>
		</g>
	</g>
	<g>
		<path fill="#D3F2FF" d="M215.3,116.155c-7.701-7.7-22.891-13.377-33.754-12.614l-52.91,3.716
			c-10.865,0.764-20.379,10.275-21.139,21.141l-3.717,52.908c-0.763,10.866,4.913,26.057,12.614,33.757l103.22,103.22
			c7.701,7.701,20.303,7.701,28.005,0l70.901-70.901c7.7-7.702,7.7-20.303,0-28.005L215.3,116.155z M142.61,164.68
			c-6.159-6.159-6.159-16.147,0-22.308c6.159-6.159,16.146-6.159,22.307,0c6.161,6.16,6.161,16.146,0,22.308
			C158.757,170.839,148.77,170.841,142.61,164.68z"/>
	</g>
	<g>
		<path fill="#A6E5FF" d="M219.614,318.282c7.701,7.701,20.303,7.701,28.005,0l70.901-70.901c7.7-7.702,7.7-20.303,0-28.005"/>
	</g>
	<g>
		<path fill="#213B4D" d="M233.617,329.975C233.616,329.975,233.617,329.975,233.617,329.975c-6.962,0-13.491-2.696-18.386-7.592
			L112.293,219.444c-9.015-9.015-15.377-26.038-14.484-38.756l3.687-52.514c0.974-13.868,13.048-25.943,26.917-26.917l52.513-3.688
			c0.795-0.056,1.621-0.084,2.456-0.084c12.389,0,27.994,6.263,36.3,14.568l102.942,102.939c4.895,4.896,7.591,11.425,7.591,18.386
			s-2.696,13.489-7.592,18.385l-70.621,70.62C247.105,327.279,240.576,329.975,233.617,329.975z M183.381,109.486
			c-0.556,0-1.099,0.019-1.616,0.055l-52.512,3.688c-7.996,0.562-15.226,7.791-15.787,15.787l-3.687,52.514
			c-0.644,9.174,4.496,22.927,10.999,29.431l102.938,102.938c2.629,2.628,6.145,4.076,9.9,4.076c3.754,0,7.27-1.447,9.898-4.076
			l70.621-70.62c2.629-2.629,4.077-6.145,4.077-9.899c0-3.756-1.448-7.271-4.077-9.9L211.195,120.539
			C205.101,114.444,192.623,109.486,183.381,109.486z M153.762,175.3c-5.816,0-11.284-2.265-15.396-6.378
			c-8.488-8.488-8.488-22.302,0-30.792c4.112-4.113,9.58-6.377,15.396-6.377s11.284,2.264,15.396,6.376
			c4.113,4.113,6.378,9.581,6.378,15.396s-2.265,11.284-6.378,15.397C165.046,173.035,159.578,175.3,153.762,175.3z
			 M153.763,143.753c-2.611,0-5.065,1.016-6.911,2.862c-3.81,3.811-3.811,10.012,0,13.822c1.846,1.846,4.3,2.863,6.91,2.863
			c2.611,0,5.066-1.017,6.913-2.863c1.846-1.846,2.863-4.301,2.863-6.911s-1.017-5.064-2.863-6.91
			C158.828,144.769,156.374,143.753,153.763,143.753z"/>
	</g>
	<g>
		<g>
			<path fill="#213B4D" d="M184.724,246.862c-1.536,0-3.071-0.586-4.243-1.758c-2.343-2.343-2.343-6.143,0-8.485l32.734-32.729
				c2.344-2.341,6.143-2.342,8.486,0.001c2.343,2.343,2.342,6.143-0.001,8.485l-32.734,32.729
				C187.794,246.276,186.259,246.862,184.724,246.862z"/>
		</g>
		<g>
			<path fill="#213B4D" d="M215.842,277.979c-1.536,0-3.071-0.586-4.243-1.758c-2.343-2.343-2.343-6.142,0.001-8.485l46.178-46.175
				c2.344-2.342,6.143-2.342,8.486,0.001c2.343,2.343,2.342,6.142-0.001,8.485l-46.179,46.175
				C218.912,277.393,217.377,277.979,215.842,277.979z"/>
		</g>
		<g>
			<path fill="#213B4D" d="M169.167,231.305c-1.536,0-3.071-0.586-4.243-1.758c-2.343-2.343-2.343-6.142,0-8.484l51.292-51.292
				c2.344-2.343,6.143-2.343,8.485,0c2.344,2.343,2.344,6.142,0,8.485l-51.292,51.292
				C172.238,230.719,170.702,231.305,169.167,231.305z"/>
		</g>
		<g>
			<path fill="#213B4D" d="M200.284,262.421c-1.536,0-3.071-0.586-4.243-1.758c-2.343-2.343-2.343-6.142,0-8.485l38.225-38.222
				c2.343-2.342,6.142-2.342,8.484,0.001c2.344,2.343,2.344,6.142,0,8.485l-38.224,38.222
				C203.355,261.835,201.819,262.421,200.284,262.421z"/>
		</g>
	</g>
	<g>
		<path fill="#213B4D" d="M153.578,169.979c-3.314,0-6-2.687-6-6c0-38.618-31.418-70.035-70.036-70.035c-3.314,0-6-2.687-6-6
			s2.686-6,6-6c45.234,0,82.036,36.801,82.036,82.035C159.578,167.292,156.892,169.979,153.578,169.979z"/>
	</g>
	<g>
		<path fill="#213B4D" d="M96.022,112.423c-3.314,0-6-2.687-6-6c0-21.399-17.41-38.809-38.809-38.809c-3.314,0-6-2.687-6-6
			s2.686-6,6-6c28.016,0,50.809,22.792,50.809,50.809C102.022,109.736,99.336,112.423,96.022,112.423z"/>
	</g>
	<g>
		<path fill="#213B4D" d="M77.542,130.902c-13.499,0-24.48-10.981-24.48-24.479s10.981-24.479,24.48-24.479c3.313,0,6,2.687,6,6
			s-2.687,6-6,6c-6.882,0-12.48,5.598-12.48,12.479s5.599,12.479,12.48,12.479s12.48-5.598,12.48-12.479c0-3.313,2.686-6,6-6
			c3.313,0,6,2.687,6,6C102.022,119.921,91.04,130.902,77.542,130.902z"/>
	</g>
</g>
</svg>
