<?xml version="1.0" encoding="utf-8"?>
<!-- Generator: Adobe Illustrator 16.0.4, SVG Export Plug-In . SVG Version: 6.00 Build 0)  -->
<!DOCTYPE svg PUBLIC "-//W3C//DTD SVG 1.1//EN" "http://www.w3.org/Graphics/SVG/1.1/DTD/svg11.dtd">
<svg version="1.1" id="Layer_1" xmlns="http://www.w3.org/2000/svg" xmlns:xlink="http://www.w3.org/1999/xlink" x="0px" y="0px"
	 width="600px" height="600px" viewBox="0 0 600 600" enable-background="new 0 0 600 600" xml:space="preserve">
<g>
	<path fill="#C6ED64" d="M562.152,332.922c0,161.006-96.138,213.447-262.807,213.447c-166.668,0-262.806-52.441-262.806-213.447
		c0-161.004,96.138-213.446,262.806-213.446C466.015,119.476,562.152,171.918,562.152,332.922z"/>
</g>
<g>
	<g>
		<g>
			<g>
				<path fill="#A4A4FF" d="M189.075,311.076c-75.091,0-136.181-61.09-136.181-136.18c0-12.23,9.915-22.145,22.146-22.145
					s22.144,9.914,22.144,22.145c0,50.669,41.223,91.891,91.892,91.891c12.229,0,22.144,9.914,22.144,22.145
					S201.304,311.076,189.075,311.076z"/>
			</g>
		</g>
		<g>
			<g>
				<path fill="#9494E6" d="M56.929,205.678c-2.222,0-4.25-1.491-4.835-3.741c-0.696-2.672,0.907-5.402,3.579-6.099l38.694-10.074
					c2.672-0.692,5.403,0.907,6.099,3.579s-0.907,5.402-3.579,6.099l-38.694,10.074C57.77,205.625,57.346,205.678,56.929,205.678z"
					/>
			</g>
			<g>
				<path fill="#9494E6" d="M70.327,244.564c-1.728,0-3.408-0.896-4.334-2.501c-1.381-2.392-0.562-5.449,1.83-6.83l36.239-20.923
					c2.391-1.383,5.449-0.562,6.83,1.83c1.381,2.392,0.562,5.449-1.83,6.83l-36.239,20.923
					C72.035,244.349,71.176,244.564,70.327,244.564z"/>
			</g>
			<g>
				<path fill="#9494E6" d="M96.239,276.646c-1.28,0-2.559-0.488-3.536-1.465c-1.953-1.952-1.953-5.118,0-7.07l28.472-28.473
					c1.953-1.953,5.119-1.953,7.071,0c1.953,1.952,1.953,5.118,0,7.07l-28.472,28.473C98.798,276.158,97.519,276.646,96.239,276.646
					z"/>
			</g>
			<g>
				<path fill="#9494E6" d="M129.57,300.931c-0.849,0-1.708-0.216-2.496-0.671c-2.392-1.381-3.211-4.438-1.83-6.83l21.142-36.617
					c1.38-2.393,4.439-3.214,6.83-1.83c2.392,1.381,3.211,4.438,1.83,6.83l-21.142,36.617
					C132.979,300.034,131.298,300.931,129.57,300.931z"/>
			</g>
			<g>
				<path fill="#9494E6" d="M168.583,312.577c-0.441,0-0.89-0.059-1.335-0.182c-2.662-0.736-4.223-3.49-3.487-6.151l10.743-38.854
					c0.736-2.662,3.49-4.224,6.152-3.487s4.223,3.49,3.487,6.151L173.4,308.908C172.787,311.124,170.775,312.577,168.583,312.577z"
					/>
			</g>
		</g>
		<g>
			<g>
				<path fill="#213B4D" d="M189.075,316.076c-77.847,0-141.181-63.333-141.181-141.18c0-14.968,12.177-27.145,27.146-27.145
					c14.967,0,27.144,12.177,27.144,27.145c0,47.912,38.979,86.891,86.892,86.891c14.967,0,27.144,12.177,27.144,27.145
					S204.042,316.076,189.075,316.076z M75.04,157.752c-9.454,0-17.146,7.691-17.146,17.145c0,72.333,58.847,131.18,131.181,131.18
					c9.453,0,17.144-7.691,17.144-17.145s-7.69-17.145-17.144-17.145c-53.426,0-96.892-43.465-96.892-96.891
					C92.183,165.443,84.493,157.752,75.04,157.752z"/>
			</g>
		</g>
	</g>
	<g>
		<g>
			<g>
				<path fill="#A4A4FF" d="M394.682,264.29c75.09,0,136.18,61.089,136.18,136.179c0,12.23-9.914,22.145-22.145,22.145
					s-22.145-9.914-22.145-22.145c0-50.668-41.223-91.891-91.891-91.891c-12.23,0-22.145-9.914-22.145-22.145
					C372.537,274.204,382.451,264.29,394.682,264.29z"/>
			</g>
		</g>
		<g>
			<g>
				<path fill="#9494E6" d="M488.125,389.765c-2.222,0-4.25-1.491-4.835-3.741c-0.696-2.673,0.906-5.402,3.579-6.099l38.695-10.074
					c2.672-0.693,5.402,0.906,6.098,3.579c0.696,2.673-0.906,5.402-3.578,6.099l-38.695,10.074
					C488.966,389.712,488.542,389.765,488.125,389.765z"/>
			</g>
			<g>
				<path fill="#9494E6" d="M477.199,361.727c-1.728,0-3.408-0.896-4.334-2.501c-1.381-2.392-0.562-5.449,1.83-6.83l36.238-20.923
					c2.392-1.383,5.45-0.562,6.83,1.83c1.381,2.392,0.562,5.449-1.83,6.83l-36.238,20.923
					C478.907,361.511,478.048,361.727,477.199,361.727z"/>
			</g>
			<g>
				<path fill="#9494E6" d="M459.045,337.192c-1.28,0-2.56-0.488-3.536-1.465c-1.952-1.952-1.952-5.118,0-7.07l28.474-28.474
					c1.953-1.953,5.118-1.953,7.071,0c1.952,1.952,1.952,5.118,0,7.07l-28.474,28.474
					C461.604,336.704,460.324,337.192,459.045,337.192z"/>
			</g>
			<g>
				<path fill="#9494E6" d="M433.036,321.055c-0.849,0-1.708-0.216-2.496-0.671c-2.391-1.381-3.21-4.438-1.829-6.83l21.141-36.617
					c1.381-2.393,4.439-3.214,6.831-1.83c2.391,1.381,3.21,4.438,1.829,6.83l-21.141,36.617
					C436.444,320.158,434.764,321.055,433.036,321.055z"/>
			</g>
			<g>
				<path fill="#9494E6" d="M404.436,311.646c-0.44,0-0.889-0.059-1.335-0.182c-2.661-0.736-4.223-3.49-3.486-6.151l10.742-38.854
					c0.735-2.662,3.489-4.222,6.151-3.487c2.661,0.736,4.223,3.49,3.486,6.151l-10.742,38.854
					C408.64,310.192,406.628,311.646,404.436,311.646z"/>
			</g>
		</g>
		<g>
			<g>
				<path fill="#213B4D" d="M508.717,427.613c-14.968,0-27.145-12.177-27.145-27.145c0-47.912-38.979-86.891-86.891-86.891
					c-14.968,0-27.145-12.177-27.145-27.145c0-14.967,12.177-27.144,27.145-27.144c77.848,0,141.18,63.332,141.18,141.179
					C535.861,415.437,523.685,427.613,508.717,427.613z M394.682,269.29c-9.453,0-17.145,7.69-17.145,17.144
					s7.691,17.145,17.145,17.145c53.426,0,96.891,43.465,96.891,96.891c0,9.453,7.691,17.145,17.145,17.145
					c9.454,0,17.145-7.691,17.145-17.145C525.861,328.137,467.015,269.29,394.682,269.29z"/>
			</g>
		</g>
	</g>
	<g>
		<path fill="#A4A4FF" d="M291.652,99.781c-39.179,0-70.94,31.764-70.94,70.941v82.188h141.882v-82.188
			C362.594,131.545,330.834,99.781,291.652,99.781z"/>
		<path fill="#213B4D" d="M362.594,257.91H220.711c-2.761,0-5-2.238-5-5v-82.188c0-41.874,34.067-75.941,75.94-75.941
			c41.875,0,75.942,34.067,75.942,75.941v82.188C367.594,255.672,365.354,257.91,362.594,257.91z M225.711,247.91h131.882v-77.188
			c0-36.36-29.582-65.941-65.942-65.941s-65.94,29.581-65.94,65.941V247.91z"/>
	</g>
	<g>
		<g>
			<path fill="#7575FF" d="M351.521,258.446c-3.057,0-5.535-2.478-5.535-5.536v-82.188c0-36.055-28.242-64.299-64.299-64.299
				c-3.057,0-5.535-2.478-5.535-5.535c0-3.059,2.479-5.537,5.535-5.537c42.264,0,75.372,33.107,75.372,75.371v82.188
				C357.059,255.969,354.58,258.446,351.521,258.446z"/>
		</g>
	</g>
	<g>
		<path fill="#213B4D" d="M291.652,104.781c-2.761,0-5-2.238-5-5c0-26.537,21.589-48.127,48.127-48.127c2.761,0,5,2.238,5,5
			s-2.239,5-5,5c-21.023,0-38.127,17.104-38.127,38.127C296.652,102.543,294.413,104.781,291.652,104.781z"/>
	</g>
	<g>
		<circle fill="#FFF268" cx="338.398" cy="56.654" r="16.924"/>
		<path fill="#213B4D" d="M338.398,78.578c-12.089,0-21.924-9.835-21.924-21.924s9.835-21.924,21.924-21.924
			c12.09,0,21.924,9.835,21.924,21.924S350.488,78.578,338.398,78.578z M338.398,44.73c-6.575,0-11.924,5.349-11.924,11.924
			s5.349,11.924,11.924,11.924s11.924-5.349,11.924-11.924S344.974,44.73,338.398,44.73z"/>
	</g>
	<g>
		<g>
			<path fill="#213B4D" d="M298.855,175.046c0-9.348,7.577-16.924,16.924-16.924c9.346,0,16.924,7.576,16.924,16.924
				C332.703,184.393,298.855,184.393,298.855,175.046z"/>
		</g>
		<g>
			<path fill="#213B4D" d="M250.606,175.046c0-9.348,7.576-16.924,16.924-16.924c9.347,0,16.925,7.576,16.925,16.924
				C284.455,184.393,250.606,184.393,250.606,175.046z"/>
		</g>
	</g>
	<g>
		<path fill="#A4A4FF" d="M383.361,250.543H199.945c-11.617,0-21.122,9.506-21.122,21.124v36.24v2.112v55.252v2.113v56.309v1.057
			v45.6c0,11.619,9.505,21.125,21.122,21.125h183.417c11.615,0,21.123-9.506,21.123-21.125v-45.6v-1.057v-56.309v-2.113V310.02
			v-2.112v-36.24C404.484,260.049,394.977,250.543,383.361,250.543z"/>
	</g>
	<g>
		<path fill="#7575FF" d="M393.924,250.543h-3.16c-5.809,0-10.561,9.506-10.561,21.124v36.24v2.112v55.252v2.113v56.309v1.057v45.6
			c0,11.619,4.752,21.125,10.561,21.125h3.16c5.807,0,10.561-9.506,10.561-21.125v-45.6v-1.057v-56.309v-2.113V310.02v-2.112v-36.24
			C404.484,260.049,399.73,250.543,393.924,250.543z"/>
	</g>
	<g>
		<rect x="178.823" y="311.076" fill="#7575FF" width="225.662" height="59.477"/>
	</g>
	<g>
		<rect x="380.203" y="311.076" fill="#4D4DA8" width="24.281" height="59.477"/>
	</g>
	<g>
		<path fill="#213B4D" d="M409.484,375.553H173.823v-69.477h235.662V375.553z M183.823,365.553h215.662v-49.477H183.823V365.553z"/>
	</g>
	<g>
		<path fill="#213B4D" d="M384.484,495.819H198.823c-13.785,0-25-11.215-25-25V272.91c0-13.785,11.215-25,25-25h185.662
			c13.784,0,25,11.215,25,25v197.909C409.484,484.604,398.269,495.819,384.484,495.819z M198.823,257.91c-8.271,0-15,6.729-15,15
			v197.909c0,8.271,6.729,15,15,15h185.662c8.271,0,15-6.729,15-15V272.91c0-8.271-6.729-15-15-15H198.823z"/>
	</g>
	<g>
		<path fill="#FFFFFF" d="M243.809,474.211H138.701c-9.957,0-18.024,19.551-18.024,43.667c0,24.117,8.067,43.669,18.024,43.669
			h105.108c9.954,0,18.019-19.552,18.019-43.669C261.828,493.762,253.763,474.211,243.809,474.211z"/>
		<path fill="#213B4D" d="M243.809,566.547H138.701c-14.955,0-23.024-25.075-23.024-48.669c0-23.593,8.069-48.667,23.024-48.667
			h105.108c6.972,0,13.138,5.641,17.364,15.883c3.646,8.838,5.654,20.48,5.654,32.784s-2.008,23.947-5.654,32.785
			C256.947,560.906,250.781,566.547,243.809,566.547z M138.701,479.211c-5.185,0-13.024,15.422-13.024,38.667
			c0,23.246,7.839,38.669,13.024,38.669h105.108c5.183,0,13.019-15.423,13.019-38.669c0-23.245-7.835-38.667-13.019-38.667H138.701z
			"/>
	</g>
	<g>
		<path fill="#FFFFFF" d="M444.607,474.211H339.498c-9.955,0-18.023,19.551-18.023,43.667c0,24.117,8.068,43.669,18.023,43.669
			h105.109c9.955,0,18.025-19.552,18.025-43.669C462.633,493.762,454.562,474.211,444.607,474.211z"/>
		<path fill="#213B4D" d="M444.607,566.547H339.498c-14.955,0-23.023-25.075-23.023-48.669c0-23.593,8.068-48.667,23.023-48.667
			h105.109c14.955,0,23.025,25.074,23.025,48.667C467.633,541.472,459.562,566.547,444.607,566.547z M339.498,479.211
			c-5.186,0-13.023,15.422-13.023,38.667c0,23.246,7.838,38.669,13.023,38.669h105.109c5.186,0,13.025-15.423,13.025-38.669
			c0-23.245-7.84-38.667-13.025-38.667H339.498z"/>
	</g>
	<g>
		<path fill="#E6E6E6" d="M464.822,517.878c0,24.117-8.064,43.669-18.021,43.669c-9.953,0-18.02-19.552-18.02-43.669
			c0-24.116,8.066-43.667,18.02-43.667C456.758,474.211,464.822,493.762,464.822,517.878z"/>
	</g>
	<g>
		<ellipse fill="#E6E6E6" cx="245.665" cy="517.878" rx="18.021" ry="43.669"/>
	</g>
	<g>
		<g>
			<path fill="#F2F2F2" d="M366.482,566.547c-14.953,0-23.021-25.075-23.021-48.669c0-23.593,8.068-48.667,23.021-48.667v10
				c-1.9,0-5.169,2.54-8.122,9.697c-3.16,7.656-4.899,17.944-4.899,28.97s1.739,21.314,4.899,28.971
				c2.954,7.158,6.222,9.698,8.122,9.698V566.547z"/>
		</g>
		<g>
			<path fill="#F2F2F2" d="M393.467,566.547c-14.955,0-23.023-25.075-23.023-48.669c0-23.593,8.068-48.667,23.023-48.667v10
				c-1.901,0-5.169,2.54-8.123,9.697c-3.16,7.656-4.9,17.945-4.9,28.97c0,11.025,1.74,21.314,4.9,28.971
				c2.954,7.158,6.222,9.698,8.123,9.698V566.547z"/>
		</g>
		<g>
			<path fill="#F2F2F2" d="M420.451,566.547c-14.954,0-23.023-25.075-23.023-48.669c0-23.593,8.069-48.667,23.023-48.667v10
				c-1.901,0-5.169,2.54-8.123,9.697c-3.16,7.656-4.9,17.944-4.9,28.97s1.74,21.314,4.9,28.971c2.954,7.158,6.222,9.698,8.123,9.698
				V566.547z"/>
		</g>
	</g>
	<g>
		<g>
			<path fill="#F2F2F2" d="M165.685,566.547c-14.955,0-23.023-25.075-23.023-48.669c0-23.593,8.069-48.667,23.023-48.667v10
				c-1.901,0-5.169,2.54-8.124,9.697c-3.16,7.656-4.9,17.944-4.9,28.97s1.74,21.314,4.9,28.971c2.954,7.158,6.223,9.698,8.124,9.698
				V566.547z"/>
		</g>
		<g>
			<path fill="#F2F2F2" d="M192.668,566.547c-14.954,0-23.022-25.075-23.022-48.669c0-23.593,8.069-48.667,23.022-48.667v10
				c-1.901,0-5.168,2.54-8.123,9.697c-3.16,7.656-4.9,17.944-4.9,28.97s1.74,21.314,4.9,28.971c2.954,7.158,6.222,9.698,8.123,9.698
				V566.547z"/>
		</g>
		<g>
			<path fill="#F2F2F2" d="M219.652,566.547c-14.953,0-23.021-25.075-23.021-48.669c0-23.593,8.068-48.667,23.021-48.667v10
				c-1.901,0-5.168,2.54-8.122,9.697c-3.16,7.656-4.899,17.944-4.899,28.97s1.74,21.314,4.899,28.971
				c2.954,7.158,6.221,9.698,8.122,9.698V566.547z"/>
		</g>
	</g>
	<g>
		<path fill="#213B4D" d="M243.809,566.547H138.701c-14.955,0-23.024-25.075-23.024-48.669c0-23.593,8.069-48.667,23.024-48.667
			h105.108c6.972,0,13.138,5.641,17.364,15.883c3.646,8.838,5.654,20.48,5.654,32.784s-2.008,23.947-5.654,32.785
			C256.947,560.906,250.781,566.547,243.809,566.547z M138.701,479.211c-5.185,0-13.024,15.422-13.024,38.667
			c0,23.246,7.839,38.669,13.024,38.669h105.108c5.183,0,13.019-15.423,13.019-38.669c0-23.245-7.835-38.667-13.019-38.667H138.701z
			"/>
	</g>
	<g>
		<path fill="#213B4D" d="M444.607,566.547H339.498c-14.955,0-23.023-25.075-23.023-48.669c0-23.593,8.068-48.667,23.023-48.667
			h105.109c14.955,0,23.025,25.074,23.025,48.667C467.633,541.472,459.562,566.547,444.607,566.547z M339.498,479.211
			c-5.186,0-13.023,15.422-13.023,38.667c0,23.246,7.838,38.669,13.023,38.669h105.109c5.186,0,13.025-15.423,13.025-38.669
			c0-23.245-7.84-38.667-13.025-38.667H339.498z"/>
	</g>
	<g>
		<path fill="#213B4D" d="M362.594,257.91H220.711c-2.761,0-5-2.238-5-5v-82.188c0-41.874,34.067-75.941,75.94-75.941
			c41.875,0,75.942,34.067,75.942,75.941v82.188C367.594,255.672,365.354,257.91,362.594,257.91z M225.711,247.91h131.882v-77.188
			c0-36.36-29.582-65.941-65.942-65.941s-65.94,29.581-65.94,65.941V247.91z"/>
	</g>
	<g>
		<g>
			<circle fill="#FFF268" cx="326.852" cy="340.815" r="8.73"/>
		</g>
		<g>
			<circle fill="#4D4DA8" cx="354.355" cy="340.815" r="8.73"/>
		</g>
		<g>
			<circle fill="#FFF268" cx="299.346" cy="340.815" r="8.73"/>
		</g>
	</g>
</g>
</svg>
