<?xml version="1.0" encoding="UTF-8" standalone="no"?>
<!-- Created with Inkscape (http://www.inkscape.org/) -->

<svg
   xmlns:dc="http://purl.org/dc/elements/1.1/"
   xmlns:cc="http://creativecommons.org/ns#"
   xmlns:rdf="http://www.w3.org/1999/02/22-rdf-syntax-ns#"
   xmlns:svg="http://www.w3.org/2000/svg"
   xmlns="http://www.w3.org/2000/svg"
   xmlns:sodipodi="http://sodipodi.sourceforge.net/DTD/sodipodi-0.dtd"
   xmlns:inkscape="http://www.inkscape.org/namespaces/inkscape"
   width="120.3092mm"
   height="125.64013mm"
   viewBox="0 0 426.29242 445.18156"
   id="svg2"
   version="1.1"
   inkscape:version="0.91 r13725"
   sodipodi:docname="rocket.svg">
  <defs
     id="defs4" />
  <sodipodi:namedview
     id="base"
     pagecolor="#ffffff"
     bordercolor="#666666"
     borderopacity="1.0"
     inkscape:pageopacity="0.0"
     inkscape:pageshadow="2"
     inkscape:zoom="0.7"
     inkscape:cx="270.93528"
     inkscape:cy="201.35687"
     inkscape:document-units="px"
     inkscape:current-layer="layer1"
     showgrid="false"
     inkscape:window-width="1280"
     inkscape:window-height="708"
     inkscape:window-x="4"
     inkscape:window-y="54"
     inkscape:window-maximized="0"
     fit-margin-top="0"
     fit-margin-left="0"
     fit-margin-right="0"
     fit-margin-bottom="0" />
  <metadata
     id="metadata7">
    <rdf:RDF>
      <cc:Work
         rdf:about="">
        <dc:format>image/svg+xml</dc:format>
        <dc:type
           rdf:resource="http://purl.org/dc/dcmitype/StillImage" />
        <dc:title />
      </cc:Work>
    </rdf:RDF>
  </metadata>
  <g
     inkscape:label="Layer 1"
     inkscape:groupmode="layer"
     id="layer1"
     transform="translate(-166.92186,-243.05304)">
    <g
       id="g4287"
       transform="translate(28.341853,239.99298)" />
    <g
       transform="matrix(0.62679637,0,0,0.60512283,158.45649,341.14502)"
       id="g4771">
      <g
         id="g4773">
        <path
           style="fill:#a3e3ff"
           inkscape:connector-curvature="0"
           d="M 683.963,245.285 C 683.948,422.665 563.52,480.449 354.746,480.462 145.975,480.478 25.556,422.71 25.571,245.331 25.586,67.952 146.015,10.168 354.788,10.153 563.56,10.139 683.979,67.906 683.963,245.285 Z"
           id="path4775" />
      </g>
    </g>
    <g
       id="g3410"
       transform="matrix(5.5867503,3.9065731,-3.8255371,5.4708616,364.85342,-124.75043)"
       style="fill:#000000;fill-opacity:1">
      <path
         style="fill:#213a4d;fill-opacity:1"
         d="m 62.044418,58.295377 c -0.03812,-0.06028 -0.08315,-0.112271 -0.12893,-0.164245 C 61.532319,42.753157 52.319091,33.320826 51.06845,32.110238 c -0.520571,-0.502316 -1.367362,-0.487687 -1.905091,0.03291 -1.294273,1.25604 -10.855408,11.039467 -11.731407,26.47784 -0.02691,0.03391 -0.05675,0.06341 -0.08071,0.10098 -0.254888,0.391601 -6.219421,9.742789 -5.255365,23.14873 0.04518,0.626465 0.523733,1.121331 1.153101,1.193694 0.06082,0.0079 0.122479,0.01052 0.182695,0.0095 0.562269,-0.0097 1.080646,-0.363505 1.289028,-0.898479 1.015121,-2.603065 3.014636,-6.739968 4.827485,-8.855166 0.53005,1.19331 1.167882,2.331249 1.919741,3.400332 0.185242,0.261372 0.462068,0.446101 0.780669,0.517888 1.23691,0.279619 2.494786,0.475641 3.763017,0.592706 0.378738,2.497978 1.0106,4.889023 2.034292,6.754559 0.232954,0.422562 0.683888,0.680087 1.179166,0.671531 0.495279,-0.0086 0.955856,-0.281086 1.202385,-0.712674 1.088431,-1.904254 1.800959,-4.322241 2.263052,-6.83846 1.272882,-0.160222 2.537163,-0.390897 3.78416,-0.712685 0.321196,-0.08284 0.604369,-0.2765 0.798501,-0.54517 0.796638,-1.106982 1.478494,-2.27961 2.052131,-3.505365 1.749918,2.040272 3.630013,6.144338 4.56487,8.730065 0.192069,0.527313 0.698121,0.863407 1.26039,0.853693 0.06022,-0.001 0.121247,-0.0058 0.182366,-0.01578 0.632161,-0.09416 1.127602,-0.60585 1.193826,-1.234239 1.41525,-13.447788 -4.241184,-22.598959 -4.482339,-22.981247 z"
         id="path4235"
         inkscape:connector-curvature="0" />
      <path
         style="fill:#fff168;fill-opacity:1"
         d="m 55.367884,74.519171 c -0.747969,0.179395 -1.505665,0.31065 -2.264567,0.42409 0.673185,-5.769797 0.272676,-11.27654 0.24415,-11.639462 -0.03402,-0.439376 -0.28482,-0.829672 -0.673374,-1.037739 -0.157374,-0.08349 -1.576109,-0.828173 -3.049901,-0.802712 -1.549815,0.02677 -2.95093,0.833549 -3.105225,0.925396 -0.380783,0.225817 -0.634116,0.614418 -0.681229,1.045534 -0.03998,0.36485 -0.626355,5.893843 -0.144943,11.646667 -0.757042,-0.08725 -1.509105,-0.202086 -2.253018,-0.35422 -1.297547,-1.958162 -2.186903,-4.161194 -2.645655,-6.554487 -3.344993,-17.438927 5.981355,-29.509525 9.274031,-33.131449 3.173042,3.510223 12.100491,15.265473 8.168353,32.830119 -0.5408,2.408331 -1.504611,4.644121 -2.868622,6.648263 z"
         id="path4229"
         inkscape:connector-curvature="0" />
      <path
         id="path4279"
         d="m 54.406536,74.711077 c 0.759643,-0.05913 0.685136,-0.02753 1.433966,-0.151997 1.366291,-1.908778 2.156624,-3.838265 2.700138,-6.212978 3.962619,-17.303456 -4.949073,-29.86164 -8.110843,-33.60322 -3.238894,1.384252 14.748904,14.894279 3.976738,39.968191 z"
         style="fill:#f7c148;fill-opacity:1"
         inkscape:connector-curvature="0"
         sodipodi:nodetypes="ccccc" />
      <path
         id="path3412"
         d="m 49.913724,44.202422 c -2.727795,0.04712 -4.983511,2.276249 -5.028701,4.970318 -0.04518,2.693326 2.13703,4.846525 4.864825,4.7994 2.727795,-0.04713 4.983524,-2.276992 5.028702,-4.970318 0.04518,-2.693326 -2.137031,-4.846525 -4.864826,-4.7994 z m -0.11881,7.083083 c -1.226906,0.02119 -2.209196,-0.948036 -2.188883,-2.159029 0.02033,-1.211737 1.035722,-2.216223 2.262628,-2.237419 1.226906,-0.0212 2.209923,0.94951 2.18961,2.160503 -0.02031,1.210993 -1.03645,2.214749 -2.263355,2.235945 z"
         inkscape:connector-curvature="0"
         style="fill:#213a4d;fill-opacity:1" />
      <path
         style="fill:#fff168;fill-opacity:1"
         d="m 34.860592,75.585418 c 0.404563,-4.604308 1.579646,-8.44456 2.662664,-11.14764 0.122419,1.404727 0.312773,2.841723 0.596505,4.319468 0.119052,0.6185 0.268438,1.223098 0.43753,1.819181 -1.353845,1.173833 -2.638252,3.097823 -3.696699,5.008991 z"
         id="path4233"
         inkscape:connector-curvature="0" />
      <path
         style="fill:#fff168;fill-opacity:1"
         d="m 49.308062,80.309939 c -1.533373,-5.574124 -1.042305,-13.45141 -0.836214,-15.913413 0.330964,-0.126857 0.734678,-0.239363 1.107266,-0.2458 0.351512,-0.0061 0.761345,0.09981 1.100262,0.216581 0.123368,2.469689 0.347618,10.319754 -1.371314,15.942632 z"
         id="path4231"
         inkscape:connector-curvature="0" />
      <path
         style="fill:#fff168;fill-opacity:1"
         d="m 60.402808,70.164843 c 0.184503,-0.591787 0.3503,-1.18994 0.48772,-1.800979 0.340858,-1.524208 0.582364,-3.002108 0.751789,-4.444577 1.004893,2.672212 2.076004,6.510818 2.329811,11.163207 -1.004387,-1.894854 -2.240458,-3.794623 -3.56932,-4.917651 z"
         id="path3414"
         inkscape:connector-curvature="0" />
    </g>
  </g>
</svg>
