<?xml version="1.0" encoding="UTF-8" standalone="no"?>
<!-- Created with Inkscape (http://www.inkscape.org/) -->

<svg
   xmlns:dc="http://purl.org/dc/elements/1.1/"
   xmlns:cc="http://creativecommons.org/ns#"
   xmlns:rdf="http://www.w3.org/1999/02/22-rdf-syntax-ns#"
   xmlns:svg="http://www.w3.org/2000/svg"
   xmlns="http://www.w3.org/2000/svg"
   xmlns:sodipodi="http://sodipodi.sourceforge.net/DTD/sodipodi-0.dtd"
   xmlns:inkscape="http://www.inkscape.org/namespaces/inkscape"
   width="190.89204mm"
   height="166.61829mm"
   viewBox="0 0 676.38913 590.37975"
   id="svg2"
   version="1.1"
   inkscape:version="0.91 r13725"
   sodipodi:docname="translator.svg">
  <defs
     id="defs4" />
  <sodipodi:namedview
     id="base"
     pagecolor="#ffffff"
     bordercolor="#666666"
     borderopacity="1.0"
     inkscape:pageopacity="0.0"
     inkscape:pageshadow="2"
     inkscape:zoom="0.35"
     inkscape:cx="521.80977"
     inkscape:cy="230.63104"
     inkscape:document-units="px"
     inkscape:current-layer="layer4"
     showgrid="false"
     fit-margin-top="20"
     fit-margin-left="20"
     fit-margin-bottom="20"
     fit-margin-right="20"
     inkscape:window-width="1280"
     inkscape:window-height="708"
     inkscape:window-x="33"
     inkscape:window-y="0"
     inkscape:window-maximized="0">
    <inkscape:grid
       type="xygrid"
       id="grid3347"
       originx="-30.935022"
       originy="-280.58005" />
  </sodipodi:namedview>
  <metadata
     id="metadata7">
    <rdf:RDF>
      <cc:Work
         rdf:about="">
        <dc:format>image/svg+xml</dc:format>
        <dc:type
           rdf:resource="http://purl.org/dc/dcmitype/StillImage" />
        <dc:title></dc:title>
      </cc:Work>
    </rdf:RDF>
  </metadata>
  <g
     inkscape:groupmode="layer"
     id="layer3"
     inkscape:label="Layer 0"
     transform="translate(-30.935023,-181.40245)">
    <g
       transform="matrix(0.97913872,0.20319293,-0.20319293,0.97913872,137.24463,111.91574)"
       id="g3"
       style="fill:#a7e2ff;fill-opacity:1">
      <path
         sodipodi:type="inkscape:offset"
         inkscape:radius="-3.6638877"
         inkscape:original="M 299.3457 119.47656 C 132.6777 119.47656 36.539062 171.91788 36.539062 332.92188 C 36.539062 493.92787 132.6777 546.36914 299.3457 546.36914 C 466.0147 546.36914 562.15234 493.92787 562.15234 332.92188 C 562.15234 171.91788 466.0157 119.47656 299.3457 119.47656 z "
         style="fill:#a7e2ff;fill-opacity:1"
         id="path4207"
         d="m 299.3457,123.14062 c -82.94972,0 -147.85887,13.13511 -191.72265,45.62696 -43.863788,32.49184 -67.419925,84.38155 -67.419925,164.1543 0,79.77374 23.556139,131.66417 67.419925,164.15624 43.86378,32.49208 108.77293,45.62696 191.72265,45.62696 82.95023,0 147.85901,-13.13489 191.72266,-45.62696 43.86365,-32.49206 67.41992,-84.38249 67.41992,-164.15624 0,-79.77276 -23.55444,-131.66247 -67.41797,-164.1543 C 447.20678,136.27574 382.29643,123.14062 299.3457,123.14062 Z"
         transform="translate(-6.0609153,-28.284271)" />
    </g>
  </g>
  <g
     inkscape:label="Layer 1"
     inkscape:groupmode="layer"
     id="layer1"
     transform="translate(-30.935023,-181.40245)">
    <path
       sodipodi:nodetypes="ssssscccssss"
       inkscape:connector-curvature="0"
       id="path4163"
       d="m 546.10085,403.47899 -131.42857,0 c -45.90286,0 -82.85714,34.40572 -82.85714,77.14286 l 0,77.14286 c 0,42.73714 36.95428,77.14286 82.85714,77.14286 l 86.57143,0 40.17332,58.51014 -0.17332,-58.51014 4.85714,0 c 45.90285,0 82.85714,-34.40572 82.85714,-77.14286 l 0,-77.14286 c 0,-42.73714 -36.95429,-77.14286 -82.85714,-77.14286 z"
       style="fill:#fa7846;fill-opacity:1;stroke:#223b4f;stroke-width:15;stroke-linecap:round;stroke-linejoin:round;stroke-miterlimit:4;stroke-dasharray:none;stroke-opacity:1" />
    <g
       style="font-style:normal;font-weight:normal;font-size:40px;line-height:125%;font-family:Sans;letter-spacing:0px;word-spacing:0px;fill:#fff69b;fill-opacity:1;stroke:#fff69b;stroke-width:1px;stroke-linecap:butt;stroke-linejoin:miter;stroke-opacity:1"
       id="text4180"
       transform="translate(-25.714286,54)">
      <path
         d="m 453.98743,411.10474 c 2.875,-2.375 6.8125,-4.25 11.8125,-5.625 5,-1.5 9.875,-2.25 14.625,-2.25 4.875,0 9.375,0.6875 13.5,2.0625 4.125,1.25 7.75,3.125 10.875,5.625 3.125,2.5 5.5625,5.625 7.3125,9.375 1.75,3.75 2.625,8.0625 2.625,12.9375 0,6 -1.375,11.0625 -4.125,15.1875 -2.75,4 -5.9375,7.125 -9.5625,9.375 3.625,1 7.3125,1.75 11.0625,2.25 3.75,0.375 7.1875,0.5625 10.3125,0.5625 3.75,0 7.625,-0.5 11.625,-1.5 4.125,-1 7.1875,-2.1875 9.1875,-3.5625 l 0,-38.625 -17.25,0 c 0,0 -3.46109,0.59458 -3.48215,-5.4479 -0.0211,-6.04248 3.48215,-6.5521 3.48215,-6.5521 l 48.75,0 c 0,0 2.66634,0.77515 2.76786,5.92711 0.0891,4.52325 -2.76786,6.07289 -2.76786,6.07289 l -16.875,0 0,106.125 c 0,0 -1.1863,2.80983 -7.58183,2.77792 -6.39553,-0.0319 -7.04317,-2.77792 -7.04317,-2.77792 l 0,-52.6875 c -4.5,2 -9.9375,3 -16.3125,3 -2.75,0 -5.3125,-0.1875 -7.6875,-0.5625 -2.25,-0.5 -5.0625,-1.4375 -8.4375,-2.8125 l -0.375,0.375 c 2.25,2.625 3.9375,5.375 5.0625,8.25 1.25,2.75 1.875,5.9375 1.875,9.5625 0,10.125 -3.3125,18.0625 -9.9375,23.8125 -6.5,5.625 -15.375,8.4375 -26.625,8.4375 -2.875,0 -5.75,-0.25 -8.625,-0.75 -2.875,-0.5 -5.6875,-1.1875 -8.4375,-2.0625 -2.75,-1 -5.3125,-2.125 -7.6875,-3.375 -2.25,-1.25 -4.1875,-2.625 -5.8125,-4.125 0,0 -2.54636,-4.42756 -0.13692,-8.05134 2.40944,-3.62378 6.32442,-2.63616 6.32442,-2.63616 3.25,2.75 6.75,4.875 10.5,6.375 3.875,1.375 8.1875,2.0625 12.9375,2.0625 3,0 5.8125,-0.375 8.4375,-1.125 2.75,-0.75 5.125,-1.9375 7.125,-3.5625 2.125,-1.625 3.8125,-3.75 5.0625,-6.375 1.25,-2.625 1.875,-5.75 1.875,-9.375 0,-6.375 -2,-11.5 -6,-15.375 -3.875,-3.875 -10.25,-5.8125 -19.125,-5.8125 l -11.625,0 c 0,0 -3.90185,0.57904 -4.04061,-5.84121 -0.13876,-6.42025 4.04061,-6.34629 4.04061,-6.34629 l 9.9375,0 c 7.375,0.125 13.25,-1.5625 17.625,-5.0625 4.375,-3.5 6.5625,-8.5 6.5625,-15 0,-6.125 -2,-10.6875 -6,-13.6875 -4,-3 -8.625,-4.5 -13.875,-4.5 -2.875,0 -6.125,0.4375 -9.75,1.3125 -3.5,0.75 -6.875,2.25 -10.125,4.5 0,0 -3.76302,0.76832 -6.00536,-3.21224 -2.37534,-4.21667 0.005,-7.28776 0.005,-7.28776 z"
         style="font-style:normal;font-variant:normal;font-weight:normal;font-stretch:normal;font-size:187.5px;font-family:'Ek Mukta';-inkscape-font-specification:'Ek Mukta';fill:#fff69b;fill-opacity:1;stroke:#fff69b;stroke-width:2;stroke-linecap:round;stroke-linejoin:round;stroke-miterlimit:4;stroke-dasharray:none;stroke-opacity:1"
         id="path4191"
         inkscape:connector-curvature="0"
         sodipodi:nodetypes="ccscssscccscccczccsccczccsccccscssccczccsccsscsczccssssccscc" />
    </g>
  </g>
  <g
     inkscape:groupmode="layer"
     id="layer2"
     inkscape:label="Layer 2"
     transform="translate(-30.935023,-181.40245)">
    <path
       style="fill:#fff69b;fill-opacity:1;stroke:#223b4f;stroke-width:15;stroke-linecap:round;stroke-linejoin:round;stroke-miterlimit:4;stroke-dasharray:none;stroke-opacity:1"
       d="m 194.45903,292.36221 131.42857,0 c 45.90286,0 82.85714,34.40572 82.85714,77.14286 l 0,77.14286 c 0,42.73714 -36.95428,77.14286 -82.85714,77.14286 l -86.57143,0 -40.17332,58.51014 0.17332,-58.51014 -4.85714,0 c -45.90285,0 -82.85714,-34.40572 -82.85714,-77.14286 l 0,-77.14286 c 0,-42.73714 36.95429,-77.14286 82.85714,-77.14286 z"
       id="rect3344"
       inkscape:connector-curvature="0"
       sodipodi:nodetypes="ssssscccssss" />
    <g
       style="font-style:normal;font-weight:normal;font-size:40px;line-height:125%;font-family:Sans;letter-spacing:0px;word-spacing:0px;fill:#fa7846;fill-opacity:1;stroke:none;stroke-width:1px;stroke-linecap:butt;stroke-linejoin:miter;stroke-opacity:1"
       id="text4174"
       transform="translate(-25.714286,60)">
      <path
         d="m 230.76639,398.99194 43.12134,-111.41967 q 1.19018,-3.1128 4.02832,-4.57764 2.92968,-1.5564 9.24682,-1.5564 6.40869,0 9.24683,1.46485 2.83813,1.46484 4.02832,4.66919 l 43.5791,111.41967 q 0.27466,0.73243 -1.19019,2.10572 -1.46484,1.37329 -4.21142,2.56347 -2.65503,1.09864 -5.31006,1.09864 -8.05664,0 -11.44409,-8.97217 l -10.71167,-27.55738 -48.52295,0 -10.71167,27.74048 q -3.20435,8.78907 -10.71167,8.78907 -2.56348,0 -5.21851,-1.09864 -2.65503,-1.09863 -4.11987,-2.47192 -1.37329,-1.37329 -1.09863,-2.19727 z m 36.52954,-46.32568 39.00146,0 -19.50073,-51.36108 -19.50073,51.36108 z"
         style="font-style:normal;font-variant:normal;font-weight:500;font-stretch:normal;font-size:187.5px;font-family:Omnes;-inkscape-font-specification:'Omnes Medium';fill:#fa7846;fill-opacity:1"
         id="path4194"
         inkscape:connector-curvature="0" />
    </g>
  </g>
  <g
     inkscape:groupmode="layer"
     id="layer4"
     inkscape:label="Layer 3"
     transform="translate(-30.935023,-181.40245)">
    <path
       style="fill:#f5c222;fill-opacity:1;stroke:none;stroke-width:15;stroke-linecap:round;stroke-linejoin:round;stroke-miterlimit:4;stroke-dasharray:none;stroke-opacity:1"
       d="m 313.0293,299.50391 c 42.33348,0 75.71484,31.3824 75.71484,70.00195 l 0,77.14258 c 0,38.61954 -33.38116,70 -75.71484,70 l 12.85742,0 c 42.33368,0 75.71484,-31.38046 75.71484,-70 l 0,-77.14258 c 0,-38.61955 -33.38136,-70.00195 -75.71484,-70.00195 l -12.85742,0 z"
       id="path4243"
       inkscape:connector-curvature="0" />
    <path
       id="path4248"
       d="m 533.24255,410.60038 c 42.33348,0 75.71484,31.3824 75.71484,70.00195 l 0,77.14258 c 0,38.61954 -33.38116,70 -75.71484,70 l 12.85742,0 c 42.33368,0 75.71484,-31.38046 75.71484,-70 l 0,-77.14258 c 0,-38.61955 -33.38136,-70.00195 -75.71484,-70.00195 l -12.85742,0 z"
       style="fill:#c55728;fill-opacity:1;stroke:none;stroke-width:15;stroke-linecap:round;stroke-linejoin:round;stroke-miterlimit:4;stroke-dasharray:none;stroke-opacity:1"
       inkscape:connector-curvature="0" />
  </g>
</svg>
