<?xml version="1.0" encoding="utf-8"?>
<!-- Generator: Adobe Illustrator 16.0.4, SVG Export Plug-In . SVG Version: 6.00 Build 0)  -->
<!DOCTYPE svg PUBLIC "-//W3C//DTD SVG 1.1//EN" "http://www.w3.org/Graphics/SVG/1.1/DTD/svg11.dtd">
<svg version="1.1" id="Layer_1" xmlns="http://www.w3.org/2000/svg" xmlns:xlink="http://www.w3.org/1999/xlink" x="0px" y="0px"
	 width="420px" height="420px" viewBox="0 0 420 420" enable-background="new 0 0 420 420" xml:space="preserve">
<g>
	<path fill="#FFF268" d="M391.457,210.333c0,131.159-68.579,173.879-187.471,173.879S16.516,341.491,16.516,210.333
		S85.095,36.453,203.986,36.453S391.457,79.174,391.457,210.333z"/>
</g>
<g>
	<g>
		<path fill="#7575FF" d="M223.375,99.241H9.604v194.15h241.768c0,0,0-140.151,0-166.15
			C251.371,107.241,236.146,99.241,223.375,99.241z"/>
		<path fill="#213B4D" d="M251.371,298.391H9.604c-2.761,0-5-2.238-5-5V99.241c0-2.761,2.239-5,5-5h213.771
			c15.892,0,32.996,10.327,32.996,33v166.15C256.371,296.152,254.133,298.391,251.371,298.391z M14.604,288.391h231.768V127.24
			c0-8.542-4.844-23-22.996-23H14.604V288.391z"/>
	</g>
	<g>
		<path fill="#4D4DA8" d="M231.875,99.241c12.771,0,19.496,8,19.496,28c0,26,0,166.15,0,166.15h-19.496"/>
	</g>
	<g>
		<path fill="#FFFBCD" d="M347.604,211.24c0,0-22.485-50.642-43.24-50.642s-52.992,0-52.992,0v132.792h157.551
			c0,0,0-40.643,0-56.396S347.604,211.24,347.604,211.24z"/>
		<path fill="#213B4D" d="M408.922,298.391H251.371c-2.762,0-5-2.238-5-5V160.598c0-2.761,2.238-5,5-5h52.992
			c21.235,0,41.402,39.867,46.691,51.168c5.098,0.92,16.771,3.193,28.607,6.644c23.373,6.814,34.26,14.309,34.26,23.584v56.396
			C413.922,296.152,411.684,298.391,408.922,298.391z M256.371,288.391h147.551v-51.396c0-0.061-0.31-6.186-27.059-13.984
			c-14.864-4.333-29.914-6.81-30.064-6.834c-1.664-0.271-3.08-1.364-3.765-2.905c-0.055-0.124-5.603-12.537-13.524-24.725
			c-9.618-14.798-18.549-22.948-25.146-22.948h-47.992V288.391z"/>
	</g>
	<g>
		<polygon fill="#FFF268" points="408.922,293.391 408.922,236.994 395.068,224.209 393.668,293.391 		"/>
	</g>
	<g>
		<path fill="#FFF268" d="M347.604,211.24c0,0-20.799-47.5-40.617-50.375c0,0-2.623,5.375-2.623,8.875s0,3.5,0,3.5
			s17.5,6.5,30.555,40c0,0,9.75,3.25,14.5,3.25S347.604,211.24,347.604,211.24z"/>
	</g>
	<g>
		<line fill="#FFFFFF" x1="44.604" y1="193.796" x2="203.986" y2="193.796"/>
		<path fill="#213B4D" d="M203.986,198.796H44.604c-2.761,0-5-2.239-5-5s2.239-5,5-5h159.383c2.761,0,5,2.239,5,5
			S206.748,198.796,203.986,198.796z"/>
	</g>
	<g>
		<line fill="#FFFFFF" x1="44.604" y1="160.598" x2="203.986" y2="160.598"/>
		<path fill="#213B4D" d="M203.986,165.598H44.604c-2.761,0-5-2.239-5-5s2.239-5,5-5h159.383c2.761,0,5,2.239,5,5
			S206.748,165.598,203.986,165.598z"/>
	</g>
	<g>
		<line fill="#FFFFFF" x1="44.604" y1="226.994" x2="203.986" y2="226.994"/>
		<path fill="#213B4D" d="M203.986,231.994H44.604c-2.761,0-5-2.238-5-5s2.239-5,5-5h159.383c2.761,0,5,2.238,5,5
			S206.748,231.994,203.986,231.994z"/>
	</g>
	<g>
		<path fill="#213B4D" d="M324.93,207.288c0,0-13.351-30.07-25.674-30.07c-12.324,0-31.465,0-31.465,0v30.07H324.93z"/>
	</g>
	<g>
		<path fill="#213B4D" d="M251.371,298.391H9.604c-2.761,0-5-2.238-5-5V99.241c0-2.761,2.239-5,5-5h213.771
			c15.892,0,32.996,10.327,32.996,33v166.15C256.371,296.152,254.133,298.391,251.371,298.391z M14.604,288.391h231.768V127.24
			c0-8.542-4.844-23-22.996-23H14.604V288.391z"/>
	</g>
	<g>
		<path fill="#213B4D" d="M408.922,298.391H251.371c-2.762,0-5-2.238-5-5V160.598c0-2.761,2.238-5,5-5h52.992
			c21.235,0,41.402,39.867,46.691,51.168c5.098,0.92,16.771,3.193,28.607,6.644c23.373,6.814,34.26,14.309,34.26,23.584v56.396
			C413.922,296.152,411.684,298.391,408.922,298.391z M256.371,288.391h147.551v-51.396c0-0.061-0.31-6.186-27.059-13.984
			c-14.864-4.333-29.914-6.81-30.064-6.834c-1.664-0.271-3.08-1.364-3.765-2.905c-0.055-0.124-5.603-12.537-13.524-24.725
			c-9.618-14.798-18.549-22.948-25.146-22.948h-47.992V288.391z"/>
	</g>
	<g>
		<circle fill="#213B4D" cx="87.25" cy="298.948" r="37.5"/>
		<path fill="#213B4D" d="M87.25,341.449c-23.435,0-42.5-19.065-42.5-42.501c0-23.435,19.065-42.499,42.5-42.499
			s42.5,19.064,42.5,42.499C129.75,322.384,110.685,341.449,87.25,341.449z M87.25,266.449c-17.92,0-32.5,14.578-32.5,32.499
			s14.58,32.501,32.5,32.501s32.5-14.58,32.5-32.501S105.17,266.449,87.25,266.449z"/>
	</g>
	<g>
		<circle fill="#FFFFFF" cx="87.25" cy="298.948" r="20"/>
	</g>
	<g>
		<circle fill="#213B4D" cx="341.863" cy="298.948" r="37.5"/>
		<path fill="#213B4D" d="M341.865,341.449c-23.436,0-42.502-19.065-42.502-42.501c0-23.435,19.066-42.499,42.502-42.499
			c23.434,0,42.498,19.064,42.498,42.499C384.363,322.384,365.299,341.449,341.865,341.449z M341.865,266.449
			c-17.922,0-32.502,14.578-32.502,32.499s14.58,32.501,32.502,32.501c17.92,0,32.498-14.58,32.498-32.501
			S359.785,266.449,341.865,266.449z"/>
	</g>
	<g>
		<circle fill="#FFFFFF" cx="341.863" cy="298.948" r="20"/>
	</g>
	<g>
		<path fill="#D3F2FF" d="M107.25,298.948c0,11.046-8.955,20.001-20,20.001c-11.047,0-11.047-40,0-40
			C98.295,278.949,107.25,287.902,107.25,298.948z"/>
	</g>
	<g>
		<path fill="#D3F2FF" d="M361.863,298.948c0,11.046-8.955,20.001-20,20.001c-11.046,0-11.046-40,0-40
			C352.908,278.949,361.863,287.903,361.863,298.948z"/>
	</g>
</g>
</svg>
